M48
METRIC,TZ
T01C1.0160
T02C0.7620
T03C0.9650
%
T01
X+5500Y+92500
X+8040Y+92500
X+5500Y+85000
X+8040Y+85000
X+5500Y+77500
X+8040Y+77500
X+5500Y+70000
X+8040Y+70000
X+5540Y+62000
X+8080Y+62000
X+5500Y+54500
X+8040Y+54500
X+5500Y+47000
X+8040Y+47000
X+5500Y+39500
X+8040Y+39500
X+71500Y+85000
X+71500Y+82460
X+71500Y+79920
X+71500Y+77380
X+71500Y+74840
X+71500Y+72300
X+71500Y+69760
X+71500Y+67220
X+116000Y+90500
X+118540Y+90500
X+121080Y+90500
X+123620Y+90500
X+60580Y+78000
X+58040Y+78000
X+55500Y+78000
X+52960Y+78000
X+50420Y+78000
X+47880Y+78000
X+45340Y+78000
X+42800Y+78000
X+42960Y+87000
X+45500Y+87000
X+48040Y+87000
X+50580Y+87000
X+53120Y+87000
X+55660Y+87000
X+58200Y+87000
X+60740Y+87000
X+140000Y+68000
X+140000Y+65460
X+63500Y+49460
X+63500Y+52000
X+63500Y+54540
X+33500Y+77620
X+33500Y+75080
X+33500Y+72540
X+33500Y+70000
X+33500Y+67460
X+33500Y+64920
X+33500Y+62380
X+33500Y+59840
X+52660Y+7000
X+50120Y+7000
X+47580Y+7000
X+45040Y+7000
X+42500Y+7000
X+39960Y+7000
X+37420Y+7000
X+34880Y+7000
T02
X+100213Y+66514
X+102753Y+66514
X+105293Y+66514
X+107833Y+66514
X+110373Y+66514
X+112913Y+66514
X+100340Y+81500
X+102880Y+81500
X+105420Y+81500
X+107960Y+81500
X+110500Y+81500
X+113040Y+81500
X+12420Y+35000
X+17500Y+35000
X+12420Y+27380
X+17500Y+27380
X+20340Y+35120
X+25420Y+35120
X+20340Y+27500
X+25420Y+27500
X+28420Y+35000
X+33500Y+35000
X+28420Y+27380
X+33500Y+27380
X+37420Y+35000
X+42500Y+35000
X+37420Y+27380
X+42500Y+27380
X+45420Y+35000
X+50500Y+35000
X+45420Y+27380
X+50500Y+27380
X+53920Y+35000
X+59000Y+35000
X+53920Y+27380
X+59000Y+27380
X+62420Y+35000
X+67500Y+35000
X+62420Y+27380
X+67500Y+27380
X+70420Y+35000
X+75500Y+35000
X+70420Y+27380
X+75500Y+27380
X+21500Y+39500
X+11340Y+39500
X+21500Y+47000
X+11340Y+47000
X+22000Y+54500
X+11840Y+54500
X+22000Y+62000
X+11840Y+62000
X+21500Y+70000
X+11340Y+70000
X+21500Y+77500
X+11340Y+77500
X+21000Y+85000
X+10840Y+85000
X+21500Y+92000
X+11340Y+92000
X+71920Y+24000
X+71920Y+13840
X+63920Y+24500
X+63920Y+14340
X+58920Y+24500
X+58920Y+14340
X+50420Y+24500
X+50420Y+14340
X+42420Y+24500
X+42420Y+14340
X+33420Y+24500
X+33420Y+14340
X+25420Y+24500
X+25420Y+14340
X+13420Y+24500
X+13420Y+14340
X+17420Y+24500
X+17420Y+14340
X+21920Y+24500
X+21920Y+14340
X+29920Y+24500
X+29920Y+14340
X+38920Y+24500
X+38920Y+14340
X+46920Y+24500
X+46920Y+14340
X+54420Y+24500
X+54420Y+14340
X+67420Y+24500
X+67420Y+14340
X+75920Y+24500
X+75920Y+14340
X+84840Y+35500
X+89920Y+35500
X+95000Y+35500
X+134920Y+35000
X+140000Y+35000
X+145080Y+35000
X+73500Y+54540
X+73500Y+52000
X+73500Y+49460
T03
X+98960Y+21500
X+101500Y+21500
X+104040Y+21500
X+106580Y+21500
X+109120Y+21500
X+111660Y+21500
X+114200Y+21500
X+116740Y+21500
X+119280Y+21500
X+121820Y+21500
X+124360Y+21500
X+126900Y+21500
X+129440Y+21500
X+131980Y+21500
X+134520Y+21500
X+137060Y+21500
X+126580Y+36000
X+124040Y+36000
X+121500Y+36000
X+118960Y+36000
X+116420Y+36000
X+113880Y+36000
X+111340Y+36000
X+108800Y+36000
X+106260Y+36000
X+103720Y+36000
M30
