G04 PROTEUS RS274X GERBER FILE*
%FSLAX45Y45*%
%MOMM*%
G01*
%ADD10C,0.254000*%
%ADD11R,2.032000X2.032000*%
%ADD12C,1.778000*%
%ADD13C,2.032000*%
%ADD14C,1.524000*%
%ADD15C,0.000000*%
G36*
X+14889040Y+110960D02*
X+10960Y+110960D01*
X+10960Y+9989040D01*
X+14889040Y+9989040D01*
X+14889040Y+110960D01*
G37*
%LPC*%
G36*
X+1080118Y+9325722D02*
X+1081395Y+9326999D01*
X+1186605Y+9326999D01*
X+1260999Y+9252605D01*
X+1260999Y+9147395D01*
X+1186605Y+9073001D01*
X+1081395Y+9073001D01*
X+1007001Y+9147395D01*
X+1007001Y+9252605D01*
X+1008278Y+9253882D01*
X+943699Y+9318461D01*
X+943699Y+9110301D01*
X+410301Y+9110301D01*
X+410301Y+9389699D01*
X+499201Y+9389699D01*
X+499201Y+9419041D01*
X+592459Y+9512299D01*
X+893541Y+9512299D01*
X+1080118Y+9325722D01*
G37*
G36*
X+943699Y+8431539D02*
X+958278Y+8446118D01*
X+957001Y+8447395D01*
X+957001Y+8552605D01*
X+1031395Y+8626999D01*
X+1136605Y+8626999D01*
X+1210999Y+8552605D01*
X+1210999Y+8447395D01*
X+1136605Y+8373001D01*
X+1031395Y+8373001D01*
X+1030118Y+8374278D01*
X+860041Y+8204201D01*
X+592459Y+8204201D01*
X+499201Y+8297459D01*
X+499201Y+8360301D01*
X+410301Y+8360301D01*
X+410301Y+8639699D01*
X+943699Y+8639699D01*
X+943699Y+8431539D01*
G37*
G36*
X+1080118Y+7875722D02*
X+1081395Y+7876999D01*
X+1186605Y+7876999D01*
X+1260999Y+7802605D01*
X+1260999Y+7697395D01*
X+1186605Y+7623001D01*
X+1081395Y+7623001D01*
X+1007001Y+7697395D01*
X+1007001Y+7802605D01*
X+1008278Y+7803882D01*
X+943699Y+7868461D01*
X+943699Y+7610301D01*
X+410301Y+7610301D01*
X+410301Y+7889699D01*
X+499201Y+7889699D01*
X+499201Y+7958541D01*
X+592459Y+8051799D01*
X+904041Y+8051799D01*
X+1080118Y+7875722D01*
G37*
G36*
X+943699Y+6881539D02*
X+1008278Y+6946118D01*
X+1007001Y+6947395D01*
X+1007001Y+7052605D01*
X+1081395Y+7126999D01*
X+1186605Y+7126999D01*
X+1260999Y+7052605D01*
X+1260999Y+6947395D01*
X+1186605Y+6873001D01*
X+1081395Y+6873001D01*
X+1080118Y+6874278D01*
X+949541Y+6743701D01*
X+592459Y+6743701D01*
X+499201Y+6836959D01*
X+499201Y+6860301D01*
X+410301Y+6860301D01*
X+410301Y+7139699D01*
X+943699Y+7139699D01*
X+943699Y+6881539D01*
G37*
G36*
X+1130118Y+6325722D02*
X+1131395Y+6326999D01*
X+1236605Y+6326999D01*
X+1310999Y+6252605D01*
X+1310999Y+6147395D01*
X+1236605Y+6073001D01*
X+1131395Y+6073001D01*
X+1057001Y+6147395D01*
X+1057001Y+6252605D01*
X+1058278Y+6253882D01*
X+949459Y+6362701D01*
X+638541Y+6362701D01*
X+615539Y+6339699D01*
X+947699Y+6339699D01*
X+947699Y+6060301D01*
X+414301Y+6060301D01*
X+414301Y+6339699D01*
X+503201Y+6339699D01*
X+503201Y+6371041D01*
X+596459Y+6464299D01*
X+991541Y+6464299D01*
X+1130118Y+6325722D01*
G37*
G36*
X+1130118Y+5575722D02*
X+1131395Y+5576999D01*
X+1236605Y+5576999D01*
X+1310999Y+5502605D01*
X+1310999Y+5397395D01*
X+1236605Y+5323001D01*
X+1131395Y+5323001D01*
X+1057001Y+5397395D01*
X+1057001Y+5502605D01*
X+1058278Y+5503882D01*
X+897959Y+5664201D01*
X+634541Y+5664201D01*
X+600799Y+5630459D01*
X+600799Y+5589699D01*
X+943699Y+5589699D01*
X+943699Y+5310301D01*
X+410301Y+5310301D01*
X+410301Y+5589699D01*
X+499201Y+5589699D01*
X+499201Y+5672541D01*
X+592459Y+5765799D01*
X+940041Y+5765799D01*
X+1130118Y+5575722D01*
G37*
G36*
X+943699Y+4581539D02*
X+1008278Y+4646118D01*
X+1007001Y+4647395D01*
X+1007001Y+4752605D01*
X+1081395Y+4826999D01*
X+1186605Y+4826999D01*
X+1260999Y+4752605D01*
X+1260999Y+4647395D01*
X+1186605Y+4573001D01*
X+1081395Y+4573001D01*
X+1080118Y+4574278D01*
X+900041Y+4394201D01*
X+592459Y+4394201D01*
X+499201Y+4487459D01*
X+499201Y+4560301D01*
X+410301Y+4560301D01*
X+410301Y+4839699D01*
X+943699Y+4839699D01*
X+943699Y+4581539D01*
G37*
G36*
X+1080118Y+4075722D02*
X+1081395Y+4076999D01*
X+1186605Y+4076999D01*
X+1260999Y+4002605D01*
X+1260999Y+3897395D01*
X+1186605Y+3823001D01*
X+1081395Y+3823001D01*
X+1007001Y+3897395D01*
X+1007001Y+4002605D01*
X+1008278Y+4003882D01*
X+943699Y+4068461D01*
X+943699Y+3810301D01*
X+410301Y+3810301D01*
X+410301Y+4089699D01*
X+499201Y+4089699D01*
X+499201Y+4148541D01*
X+592458Y+4241798D01*
X+914042Y+4241798D01*
X+1080118Y+4075722D01*
G37*
G36*
X+12045138Y+9184702D02*
X+12050135Y+9189699D01*
X+12165865Y+9189699D01*
X+12235000Y+9120564D01*
X+12304135Y+9189699D01*
X+12419865Y+9189699D01*
X+12501699Y+9107865D01*
X+12501699Y+8992135D01*
X+12419865Y+8910301D01*
X+12412799Y+8910301D01*
X+12412799Y+7701059D01*
X+11417022Y+6705282D01*
X+11418299Y+6704005D01*
X+11418299Y+6598795D01*
X+11343905Y+6524401D01*
X+11238695Y+6524401D01*
X+11164301Y+6598795D01*
X+11164301Y+6704005D01*
X+11238695Y+6778399D01*
X+11343905Y+6778399D01*
X+11345182Y+6777122D01*
X+12311201Y+7743141D01*
X+12311201Y+8910301D01*
X+12304135Y+8910301D01*
X+12235000Y+8979436D01*
X+12165865Y+8910301D01*
X+12050135Y+8910301D01*
X+11981000Y+8979436D01*
X+11911865Y+8910301D01*
X+11796135Y+8910301D01*
X+11727000Y+8979436D01*
X+11657865Y+8910301D01*
X+11650799Y+8910301D01*
X+11650799Y+8424959D01*
X+11429722Y+8203882D01*
X+11430999Y+8202605D01*
X+11430999Y+8097395D01*
X+11356605Y+8023001D01*
X+11251395Y+8023001D01*
X+11227798Y+8046598D01*
X+11227798Y+7471958D01*
X+11088099Y+7332259D01*
X+11088099Y+6778399D01*
X+11089905Y+6778399D01*
X+11164299Y+6704005D01*
X+11164299Y+6598795D01*
X+11089905Y+6524401D01*
X+10984695Y+6524401D01*
X+10961099Y+6547997D01*
X+10961099Y+6380759D01*
X+10816041Y+6235701D01*
X+7564459Y+6235701D01*
X+7212862Y+6587298D01*
X+7207865Y+6582301D01*
X+7092135Y+6582301D01*
X+7010301Y+6664135D01*
X+7010301Y+6779865D01*
X+7079436Y+6849000D01*
X+7010301Y+6918135D01*
X+7010301Y+7033865D01*
X+7015298Y+7038862D01*
X+6807201Y+7246959D01*
X+6807201Y+8784041D01*
X+6900459Y+8877299D01*
X+9990541Y+8877299D01*
X+10084799Y+8783041D01*
X+10084799Y+8276999D01*
X+10086605Y+8276999D01*
X+10160999Y+8202605D01*
X+10160999Y+8097395D01*
X+10115402Y+8051798D01*
X+10206598Y+8051798D01*
X+10161001Y+8097395D01*
X+10161001Y+8202605D01*
X+10235395Y+8276999D01*
X+10237201Y+8276999D01*
X+10237202Y+9292042D01*
X+10330459Y+9385299D01*
X+11844541Y+9385299D01*
X+12045138Y+9184702D01*
G37*
G36*
X+6213699Y+8757865D02*
X+6213699Y+8642135D01*
X+6208702Y+8637138D01*
X+6337299Y+8508541D01*
X+6337299Y+8007459D01*
X+6192702Y+7862862D01*
X+6197699Y+7857865D01*
X+6197699Y+7742135D01*
X+6115865Y+7660301D01*
X+6000135Y+7660301D01*
X+5931000Y+7729436D01*
X+5861865Y+7660301D01*
X+5746135Y+7660301D01*
X+5677000Y+7729436D01*
X+5607865Y+7660301D01*
X+5492135Y+7660301D01*
X+5423000Y+7729436D01*
X+5353865Y+7660301D01*
X+5238135Y+7660301D01*
X+5169000Y+7729436D01*
X+5099865Y+7660301D01*
X+4984135Y+7660301D01*
X+4915000Y+7729436D01*
X+4845865Y+7660301D01*
X+4730135Y+7660301D01*
X+4661000Y+7729436D01*
X+4591865Y+7660301D01*
X+4476135Y+7660301D01*
X+4407000Y+7729436D01*
X+4337865Y+7660301D01*
X+4222135Y+7660301D01*
X+4140301Y+7742135D01*
X+4140301Y+7857865D01*
X+4145298Y+7862862D01*
X+4013201Y+7994959D01*
X+4013201Y+8489041D01*
X+4161298Y+8637138D01*
X+4156301Y+8642135D01*
X+4156301Y+8757865D01*
X+4238135Y+8839699D01*
X+4353865Y+8839699D01*
X+4423000Y+8770564D01*
X+4492135Y+8839699D01*
X+4607865Y+8839699D01*
X+4677000Y+8770564D01*
X+4746135Y+8839699D01*
X+4861865Y+8839699D01*
X+4931000Y+8770564D01*
X+5000135Y+8839699D01*
X+5115865Y+8839699D01*
X+5185000Y+8770564D01*
X+5254135Y+8839699D01*
X+5369865Y+8839699D01*
X+5439000Y+8770564D01*
X+5508135Y+8839699D01*
X+5623865Y+8839699D01*
X+5693000Y+8770564D01*
X+5762135Y+8839699D01*
X+5877865Y+8839699D01*
X+5947000Y+8770564D01*
X+6016135Y+8839699D01*
X+6131865Y+8839699D01*
X+6213699Y+8757865D01*
G37*
G36*
X+10010299Y+2197344D02*
X+10010299Y+2102656D01*
X+9943344Y+2035701D01*
X+9848656Y+2035701D01*
X+9781701Y+2102656D01*
X+9781701Y+2197344D01*
X+9848656Y+2264299D01*
X+9943344Y+2264299D01*
X+10010299Y+2197344D01*
G37*
G36*
X+9626999Y+3602605D02*
X+9626999Y+3497395D01*
X+9625722Y+3496118D01*
X+10200799Y+2921041D01*
X+10200799Y+2260844D01*
X+10264299Y+2197344D01*
X+10264299Y+2102656D01*
X+10197344Y+2035701D01*
X+10102656Y+2035701D01*
X+10035701Y+2102656D01*
X+10035701Y+2197344D01*
X+10099201Y+2260844D01*
X+10099201Y+2878959D01*
X+9553882Y+3424278D01*
X+9552605Y+3423001D01*
X+9447395Y+3423001D01*
X+9373001Y+3497395D01*
X+9373001Y+3602605D01*
X+9447395Y+3676999D01*
X+9552605Y+3676999D01*
X+9626999Y+3602605D01*
G37*
G36*
X+10486299Y+3647344D02*
X+10486299Y+3552656D01*
X+10422799Y+3489156D01*
X+10422799Y+2402541D01*
X+10454799Y+2370541D01*
X+10454799Y+2260844D01*
X+10518299Y+2197344D01*
X+10518299Y+2102656D01*
X+10451344Y+2035701D01*
X+10356656Y+2035701D01*
X+10289701Y+2102656D01*
X+10289701Y+2197344D01*
X+10353201Y+2260844D01*
X+10353201Y+2328459D01*
X+10321201Y+2360459D01*
X+10321201Y+3489156D01*
X+10257701Y+3552656D01*
X+10257701Y+3647344D01*
X+10324656Y+3714299D01*
X+10419344Y+3714299D01*
X+10486299Y+3647344D01*
G37*
G36*
X+10740299Y+3647344D02*
X+10740299Y+3552656D01*
X+10676799Y+3489156D01*
X+10676799Y+3164541D01*
X+10708799Y+3132541D01*
X+10708799Y+2260844D01*
X+10772299Y+2197344D01*
X+10772299Y+2102656D01*
X+10705344Y+2035701D01*
X+10610656Y+2035701D01*
X+10543701Y+2102656D01*
X+10543701Y+2197344D01*
X+10607201Y+2260844D01*
X+10607201Y+3090459D01*
X+10575201Y+3122459D01*
X+10575201Y+3489156D01*
X+10511701Y+3552656D01*
X+10511701Y+3647344D01*
X+10578656Y+3714299D01*
X+10673344Y+3714299D01*
X+10740299Y+3647344D01*
G37*
G36*
X+10994299Y+3647344D02*
X+10994299Y+3552656D01*
X+10930799Y+3489156D01*
X+10930799Y+2847041D01*
X+10962799Y+2815041D01*
X+10962799Y+2260844D01*
X+11026299Y+2197344D01*
X+11026299Y+2102656D01*
X+10959344Y+2035701D01*
X+10864656Y+2035701D01*
X+10797701Y+2102656D01*
X+10797701Y+2197344D01*
X+10861201Y+2260844D01*
X+10861201Y+2772959D01*
X+10829201Y+2804959D01*
X+10829201Y+3489156D01*
X+10765701Y+3552656D01*
X+10765701Y+3647344D01*
X+10832656Y+3714299D01*
X+10927344Y+3714299D01*
X+10994299Y+3647344D01*
G37*
G36*
X+11248299Y+3647344D02*
X+11248299Y+3552656D01*
X+11184799Y+3489156D01*
X+11184799Y+3101041D01*
X+11216799Y+3069041D01*
X+11216799Y+2260844D01*
X+11280299Y+2197344D01*
X+11280299Y+2102656D01*
X+11213344Y+2035701D01*
X+11118656Y+2035701D01*
X+11051701Y+2102656D01*
X+11051701Y+2197344D01*
X+11115201Y+2260844D01*
X+11115201Y+3026959D01*
X+11083201Y+3058959D01*
X+11083201Y+3489156D01*
X+11019701Y+3552656D01*
X+11019701Y+3647344D01*
X+11086656Y+3714299D01*
X+11181344Y+3714299D01*
X+11248299Y+3647344D01*
G37*
G36*
X+11502299Y+3647344D02*
X+11502299Y+3552656D01*
X+11438799Y+3489156D01*
X+11438799Y+2529541D01*
X+11470799Y+2497541D01*
X+11470799Y+2260844D01*
X+11534299Y+2197344D01*
X+11534299Y+2102656D01*
X+11467344Y+2035701D01*
X+11372656Y+2035701D01*
X+11305701Y+2102656D01*
X+11305701Y+2197344D01*
X+11369201Y+2260844D01*
X+11369201Y+2455459D01*
X+11337201Y+2487459D01*
X+11337201Y+3489156D01*
X+11273701Y+3552656D01*
X+11273701Y+3647344D01*
X+11340656Y+3714299D01*
X+11435344Y+3714299D01*
X+11502299Y+3647344D01*
G37*
G36*
X+11756299Y+3647344D02*
X+11756299Y+3552656D01*
X+11692799Y+3489156D01*
X+11692799Y+3291541D01*
X+11724799Y+3259541D01*
X+11724799Y+2260844D01*
X+11788299Y+2197344D01*
X+11788299Y+2102656D01*
X+11721344Y+2035701D01*
X+11626656Y+2035701D01*
X+11559701Y+2102656D01*
X+11559701Y+2197344D01*
X+11623201Y+2260844D01*
X+11623201Y+3217459D01*
X+11591201Y+3249459D01*
X+11591201Y+3489156D01*
X+11527701Y+3552656D01*
X+11527701Y+3647344D01*
X+11594656Y+3714299D01*
X+11689344Y+3714299D01*
X+11756299Y+3647344D01*
G37*
G36*
X+12010299Y+3647344D02*
X+12010299Y+3552656D01*
X+11946799Y+3489156D01*
X+11946799Y+2974041D01*
X+11978799Y+2942041D01*
X+11978799Y+2260844D01*
X+12042299Y+2197344D01*
X+12042299Y+2102656D01*
X+11975344Y+2035701D01*
X+11880656Y+2035701D01*
X+11813701Y+2102656D01*
X+11813701Y+2197344D01*
X+11877201Y+2260844D01*
X+11877201Y+2899959D01*
X+11845201Y+2931959D01*
X+11845201Y+3489156D01*
X+11781701Y+3552656D01*
X+11781701Y+3647344D01*
X+11848656Y+3714299D01*
X+11943344Y+3714299D01*
X+12010299Y+3647344D01*
G37*
G36*
X+12264299Y+3647344D02*
X+12264299Y+3552656D01*
X+12200799Y+3489156D01*
X+12200799Y+3228041D01*
X+12232799Y+3196041D01*
X+12232799Y+2260844D01*
X+12296299Y+2197344D01*
X+12296299Y+2102656D01*
X+12229344Y+2035701D01*
X+12134656Y+2035701D01*
X+12067701Y+2102656D01*
X+12067701Y+2197344D01*
X+12131201Y+2260844D01*
X+12131201Y+3153959D01*
X+12099201Y+3185959D01*
X+12099201Y+3489156D01*
X+12035701Y+3552656D01*
X+12035701Y+3647344D01*
X+12102656Y+3714299D01*
X+12197344Y+3714299D01*
X+12264299Y+3647344D01*
G37*
G36*
X+12518299Y+3647344D02*
X+12518299Y+3552656D01*
X+12454799Y+3489156D01*
X+12454799Y+2656541D01*
X+12486799Y+2624541D01*
X+12486799Y+2260844D01*
X+12550299Y+2197344D01*
X+12550299Y+2102656D01*
X+12483344Y+2035701D01*
X+12388656Y+2035701D01*
X+12321701Y+2102656D01*
X+12321701Y+2197344D01*
X+12385201Y+2260844D01*
X+12385201Y+2582459D01*
X+12353201Y+2614459D01*
X+12353201Y+3489156D01*
X+12289701Y+3552656D01*
X+12289701Y+3647344D01*
X+12356656Y+3714299D01*
X+12451344Y+3714299D01*
X+12518299Y+3647344D01*
G37*
G36*
X+12804299Y+2197344D02*
X+12804299Y+2102656D01*
X+12737344Y+2035701D01*
X+12642656Y+2035701D01*
X+12575701Y+2102656D01*
X+12575701Y+2197344D01*
X+12642656Y+2264299D01*
X+12737344Y+2264299D01*
X+12804299Y+2197344D01*
G37*
G36*
X+12772299Y+3647344D02*
X+12772299Y+3557541D01*
X+12994799Y+3335041D01*
X+12994799Y+2260844D01*
X+13058299Y+2197344D01*
X+13058299Y+2102656D01*
X+12991344Y+2035701D01*
X+12896656Y+2035701D01*
X+12829701Y+2102656D01*
X+12829701Y+2197344D01*
X+12893201Y+2260844D01*
X+12893201Y+3292959D01*
X+12700459Y+3485701D01*
X+12610656Y+3485701D01*
X+12543701Y+3552656D01*
X+12543701Y+3647344D01*
X+12610656Y+3714299D01*
X+12705344Y+3714299D01*
X+12772299Y+3647344D01*
G37*
G36*
X+14634999Y+3552605D02*
X+14634999Y+3447395D01*
X+14560605Y+3373001D01*
X+14558799Y+3373001D01*
X+14558799Y+1913959D01*
X+14435541Y+1790701D01*
X+13240459Y+1790701D01*
X+13147201Y+1883959D01*
X+13147201Y+2039156D01*
X+13083701Y+2102656D01*
X+13083701Y+2197344D01*
X+13150656Y+2264299D01*
X+13245344Y+2264299D01*
X+13312299Y+2197344D01*
X+13312299Y+2102656D01*
X+13248799Y+2039156D01*
X+13248799Y+1926041D01*
X+13282541Y+1892299D01*
X+14393459Y+1892299D01*
X+14457201Y+1956041D01*
X+14457201Y+3373001D01*
X+14455395Y+3373001D01*
X+14381001Y+3447395D01*
X+14381001Y+3552605D01*
X+14455395Y+3626999D01*
X+14560605Y+3626999D01*
X+14634999Y+3552605D01*
G37*
G36*
X+14139699Y+6857865D02*
X+14139699Y+6742135D01*
X+14070564Y+6673000D01*
X+14139699Y+6603865D01*
X+14139699Y+6488135D01*
X+14057865Y+6406301D01*
X+13942135Y+6406301D01*
X+13893799Y+6454637D01*
X+13893799Y+4085041D01*
X+14020799Y+3958041D01*
X+14020799Y+3725459D01*
X+13893799Y+3598459D01*
X+13893799Y+3573403D01*
X+13947395Y+3626999D01*
X+14052605Y+3626999D01*
X+14126999Y+3552605D01*
X+14126999Y+3447395D01*
X+14052605Y+3373001D01*
X+14050799Y+3373001D01*
X+14050799Y+2074459D01*
X+13957541Y+1981201D01*
X+13548959Y+1981201D01*
X+13494459Y+2035701D01*
X+13404656Y+2035701D01*
X+13337701Y+2102656D01*
X+13337701Y+2197344D01*
X+13404656Y+2264299D01*
X+13499344Y+2264299D01*
X+13566299Y+2197344D01*
X+13566299Y+2107541D01*
X+13591041Y+2082799D01*
X+13611558Y+2082799D01*
X+13591701Y+2102656D01*
X+13591701Y+2197344D01*
X+13658656Y+2264299D01*
X+13753344Y+2264299D01*
X+13820299Y+2197344D01*
X+13820299Y+2102656D01*
X+13800442Y+2082799D01*
X+13915459Y+2082799D01*
X+13949201Y+2116541D01*
X+13949201Y+3373001D01*
X+13947395Y+3373001D01*
X+13873001Y+3447395D01*
X+13873001Y+3449201D01*
X+13821959Y+3449201D01*
X+13792201Y+3478959D01*
X+13792201Y+3598459D01*
X+13631459Y+3759201D01*
X+8568541Y+3759201D01*
X+8534799Y+3725459D01*
X+8534799Y+3676999D01*
X+8536605Y+3676999D01*
X+8610999Y+3602605D01*
X+8610999Y+3497395D01*
X+8536605Y+3423001D01*
X+8534799Y+3423001D01*
X+8534799Y+2304959D01*
X+7717722Y+1487882D01*
X+7718999Y+1486605D01*
X+7718999Y+1381395D01*
X+7644605Y+1307001D01*
X+7539395Y+1307001D01*
X+7465001Y+1381395D01*
X+7465001Y+1486605D01*
X+7466278Y+1487882D01*
X+7417459Y+1536701D01*
X+6916541Y+1536701D01*
X+6867722Y+1487882D01*
X+6868999Y+1486605D01*
X+6868999Y+1381395D01*
X+6794605Y+1307001D01*
X+6689395Y+1307001D01*
X+6615001Y+1381395D01*
X+6615001Y+1440059D01*
X+6553201Y+1501859D01*
X+6553201Y+1536701D01*
X+6468903Y+1536701D01*
X+6518999Y+1486605D01*
X+6518999Y+1381395D01*
X+6444605Y+1307001D01*
X+6339395Y+1307001D01*
X+6338118Y+1308278D01*
X+5868041Y+838201D01*
X+5325363Y+838201D01*
X+5405699Y+757865D01*
X+5405699Y+750799D01*
X+6486959Y+750799D01*
X+7066278Y+1330118D01*
X+7065001Y+1331395D01*
X+7065001Y+1436605D01*
X+7139395Y+1510999D01*
X+7244605Y+1510999D01*
X+7318999Y+1436605D01*
X+7318999Y+1331395D01*
X+7244605Y+1257001D01*
X+7139395Y+1257001D01*
X+7138118Y+1258278D01*
X+6529041Y+649201D01*
X+5405699Y+649201D01*
X+5405699Y+642135D01*
X+5323865Y+560301D01*
X+5208135Y+560301D01*
X+5139000Y+629436D01*
X+5069865Y+560301D01*
X+4954135Y+560301D01*
X+4885000Y+629436D01*
X+4815865Y+560301D01*
X+4700135Y+560301D01*
X+4631000Y+629436D01*
X+4561865Y+560301D01*
X+4446135Y+560301D01*
X+4377000Y+629436D01*
X+4307865Y+560301D01*
X+4192135Y+560301D01*
X+4123000Y+629436D01*
X+4053865Y+560301D01*
X+3938135Y+560301D01*
X+3869000Y+629436D01*
X+3799865Y+560301D01*
X+3684135Y+560301D01*
X+3615000Y+629436D01*
X+3545865Y+560301D01*
X+3430135Y+560301D01*
X+3348301Y+642135D01*
X+3348301Y+649201D01*
X+2054959Y+649201D01*
X+1395882Y+1308278D01*
X+1394605Y+1307001D01*
X+1289395Y+1307001D01*
X+1215001Y+1381395D01*
X+1215001Y+1486605D01*
X+1289395Y+1560999D01*
X+1394605Y+1560999D01*
X+1468999Y+1486605D01*
X+1468999Y+1381395D01*
X+1467722Y+1380118D01*
X+2097041Y+750799D01*
X+3348301Y+750799D01*
X+3348301Y+757865D01*
X+3430135Y+839699D01*
X+3530461Y+839699D01*
X+3412024Y+958136D01*
X+2946024Y+958136D01*
X+2595882Y+1308278D01*
X+2594605Y+1307001D01*
X+2489395Y+1307001D01*
X+2415001Y+1381395D01*
X+2415001Y+1486605D01*
X+2465097Y+1536701D01*
X+2366541Y+1536701D01*
X+2317722Y+1487882D01*
X+2318999Y+1486605D01*
X+2318999Y+1381395D01*
X+2244605Y+1307001D01*
X+2139395Y+1307001D01*
X+2065001Y+1381395D01*
X+2065001Y+1383201D01*
X+1868999Y+1383201D01*
X+1868999Y+1381395D01*
X+1794605Y+1307001D01*
X+1689395Y+1307001D01*
X+1615001Y+1381395D01*
X+1615001Y+1486605D01*
X+1689395Y+1560999D01*
X+1794605Y+1560999D01*
X+1868999Y+1486605D01*
X+1868999Y+1484799D01*
X+2065001Y+1484799D01*
X+2065001Y+1486605D01*
X+2139395Y+1560999D01*
X+2244605Y+1560999D01*
X+2245882Y+1559722D01*
X+2324459Y+1638299D01*
X+2624541Y+1638299D01*
X+2778041Y+1484799D01*
X+2865001Y+1484799D01*
X+2865001Y+1486605D01*
X+2939395Y+1560999D01*
X+3044605Y+1560999D01*
X+3045882Y+1559722D01*
X+3124458Y+1638298D01*
X+3577042Y+1638298D01*
X+3730541Y+1484799D01*
X+3765001Y+1484799D01*
X+3765001Y+1486605D01*
X+3839395Y+1560999D01*
X+3944605Y+1560999D01*
X+3945882Y+1559722D01*
X+4024459Y+1638299D01*
X+4402541Y+1638299D01*
X+4556041Y+1484799D01*
X+4565001Y+1484799D01*
X+4565001Y+1486605D01*
X+4639395Y+1560999D01*
X+4744605Y+1560999D01*
X+4745882Y+1559722D01*
X+4824459Y+1638299D01*
X+5309541Y+1638299D01*
X+5388118Y+1559722D01*
X+5389395Y+1560999D01*
X+5494605Y+1560999D01*
X+5495882Y+1559722D01*
X+5574459Y+1638299D01*
X+6625042Y+1638299D01*
X+6654799Y+1608542D01*
X+6654799Y+1543941D01*
X+6663568Y+1535172D01*
X+6689395Y+1560999D01*
X+6794605Y+1560999D01*
X+6795882Y+1559722D01*
X+6874459Y+1638299D01*
X+7459541Y+1638299D01*
X+7538118Y+1559722D01*
X+7539395Y+1560999D01*
X+7644605Y+1560999D01*
X+7645882Y+1559722D01*
X+8433201Y+2347041D01*
X+8433201Y+3423001D01*
X+8431395Y+3423001D01*
X+8357001Y+3497395D01*
X+8357001Y+3602605D01*
X+8431395Y+3676999D01*
X+8433201Y+3676999D01*
X+8433201Y+3767541D01*
X+8496701Y+3831042D01*
X+8496701Y+4235459D01*
X+7489699Y+5242461D01*
X+7489699Y+5142135D01*
X+7420564Y+5073000D01*
X+7489699Y+5003865D01*
X+7489699Y+4888135D01*
X+7407865Y+4806301D01*
X+7292135Y+4806301D01*
X+7210301Y+4888135D01*
X+7210301Y+5003865D01*
X+7279436Y+5073000D01*
X+7210301Y+5142135D01*
X+7210301Y+5149201D01*
X+6489699Y+5149201D01*
X+6489699Y+5142135D01*
X+6420564Y+5073000D01*
X+6489699Y+5003865D01*
X+6489699Y+4888135D01*
X+6407865Y+4806301D01*
X+6292135Y+4806301D01*
X+6210301Y+4888135D01*
X+6210301Y+5003865D01*
X+6279436Y+5073000D01*
X+6210301Y+5142135D01*
X+6210301Y+5257865D01*
X+6279436Y+5327000D01*
X+6210301Y+5396135D01*
X+6210301Y+5511865D01*
X+6292135Y+5593699D01*
X+6407865Y+5593699D01*
X+6489699Y+5511865D01*
X+6489699Y+5396135D01*
X+6420564Y+5327000D01*
X+6489699Y+5257865D01*
X+6489699Y+5250799D01*
X+7210301Y+5250799D01*
X+7210301Y+5257865D01*
X+7279436Y+5327000D01*
X+7210301Y+5396135D01*
X+7210301Y+5511865D01*
X+7292135Y+5593699D01*
X+7407865Y+5593699D01*
X+7489699Y+5511865D01*
X+7489699Y+5396135D01*
X+7484702Y+5391138D01*
X+8598299Y+4277541D01*
X+8598299Y+3860799D01*
X+13673541Y+3860799D01*
X+13843000Y+3691340D01*
X+13919201Y+3767541D01*
X+13919201Y+3915959D01*
X+13792201Y+4042959D01*
X+13792201Y+6664041D01*
X+13865298Y+6737138D01*
X+13860301Y+6742135D01*
X+13860301Y+6857865D01*
X+13942135Y+6939699D01*
X+14057865Y+6939699D01*
X+14139699Y+6857865D01*
G37*
G36*
X+2276999Y+9252605D02*
X+2276999Y+9250799D01*
X+3251541Y+9250799D01*
X+3400799Y+9101541D01*
X+3400799Y+7901699D01*
X+3407865Y+7901699D01*
X+3489699Y+7819865D01*
X+3489699Y+7704135D01*
X+3420564Y+7635000D01*
X+3489699Y+7565865D01*
X+3489699Y+7450135D01*
X+3420564Y+7381000D01*
X+3489699Y+7311865D01*
X+3489699Y+7196135D01*
X+3420564Y+7127000D01*
X+3489699Y+7057865D01*
X+3489699Y+6942135D01*
X+3420564Y+6873000D01*
X+3489699Y+6803865D01*
X+3489699Y+6688135D01*
X+3420564Y+6619000D01*
X+3489699Y+6549865D01*
X+3489699Y+6434135D01*
X+3420564Y+6365000D01*
X+3489699Y+6295865D01*
X+3489699Y+6180135D01*
X+3420564Y+6111000D01*
X+3489699Y+6041865D01*
X+3489699Y+5926135D01*
X+3407865Y+5844301D01*
X+3400799Y+5844301D01*
X+3400798Y+5128958D01*
X+2275722Y+4003882D01*
X+2276999Y+4002605D01*
X+2276999Y+3897395D01*
X+2202605Y+3823001D01*
X+2097395Y+3823001D01*
X+2023001Y+3897395D01*
X+2023001Y+4002605D01*
X+2097395Y+4076999D01*
X+2202605Y+4076999D01*
X+2203882Y+4075722D01*
X+3299202Y+5171042D01*
X+3299201Y+5844301D01*
X+3292135Y+5844301D01*
X+3210301Y+5926135D01*
X+3210301Y+6026461D01*
X+2672151Y+5488311D01*
X+2672151Y+5150311D01*
X+2275722Y+4753882D01*
X+2276999Y+4752605D01*
X+2276999Y+4647395D01*
X+2202605Y+4573001D01*
X+2097395Y+4573001D01*
X+2023001Y+4647395D01*
X+2023001Y+4752605D01*
X+2097395Y+4826999D01*
X+2202605Y+4826999D01*
X+2203882Y+4825722D01*
X+2570553Y+5192393D01*
X+2570553Y+5530393D01*
X+3215298Y+6175138D01*
X+3210301Y+6180135D01*
X+3210301Y+6295865D01*
X+3279436Y+6365000D01*
X+3210301Y+6434135D01*
X+3210301Y+6441201D01*
X+2561041Y+6441201D01*
X+2507969Y+6388129D01*
X+2507969Y+5686129D01*
X+2325722Y+5503882D01*
X+2326999Y+5502605D01*
X+2326999Y+5397395D01*
X+2252605Y+5323001D01*
X+2147395Y+5323001D01*
X+2073001Y+5397395D01*
X+2073001Y+5502605D01*
X+2147395Y+5576999D01*
X+2252605Y+5576999D01*
X+2253882Y+5575722D01*
X+2406371Y+5728211D01*
X+2406371Y+6430211D01*
X+2518959Y+6542799D01*
X+3210301Y+6542799D01*
X+3210301Y+6549865D01*
X+3279436Y+6619000D01*
X+3210301Y+6688135D01*
X+3210301Y+6695201D01*
X+2307041Y+6695201D01*
X+2250799Y+6638959D01*
X+2250799Y+6326999D01*
X+2252605Y+6326999D01*
X+2326999Y+6252605D01*
X+2326999Y+6147395D01*
X+2252605Y+6073001D01*
X+2147395Y+6073001D01*
X+2073001Y+6147395D01*
X+2073001Y+6252605D01*
X+2147395Y+6326999D01*
X+2149201Y+6326999D01*
X+2149201Y+6681041D01*
X+2264959Y+6796799D01*
X+3210301Y+6796799D01*
X+3210301Y+6803865D01*
X+3279436Y+6873000D01*
X+3210301Y+6942135D01*
X+3210301Y+6949201D01*
X+2276999Y+6949201D01*
X+2276999Y+6947395D01*
X+2202605Y+6873001D01*
X+2097395Y+6873001D01*
X+2023001Y+6947395D01*
X+2023001Y+7052605D01*
X+2097395Y+7126999D01*
X+2202605Y+7126999D01*
X+2276999Y+7052605D01*
X+2276999Y+7050799D01*
X+3210301Y+7050799D01*
X+3210301Y+7057865D01*
X+3279436Y+7127000D01*
X+3210301Y+7196135D01*
X+3210301Y+7203201D01*
X+2624959Y+7203201D01*
X+2203882Y+7624278D01*
X+2202605Y+7623001D01*
X+2097395Y+7623001D01*
X+2023001Y+7697395D01*
X+2023001Y+7802605D01*
X+2097395Y+7876999D01*
X+2202605Y+7876999D01*
X+2276999Y+7802605D01*
X+2276999Y+7697395D01*
X+2275722Y+7696118D01*
X+2667041Y+7304799D01*
X+3210301Y+7304799D01*
X+3210301Y+7311865D01*
X+3279436Y+7381000D01*
X+3210301Y+7450135D01*
X+3210301Y+7565865D01*
X+3215298Y+7570862D01*
X+2336959Y+8449201D01*
X+2226999Y+8449201D01*
X+2226999Y+8447395D01*
X+2152605Y+8373001D01*
X+2047395Y+8373001D01*
X+1973001Y+8447395D01*
X+1973001Y+8552605D01*
X+2047395Y+8626999D01*
X+2152605Y+8626999D01*
X+2226999Y+8552605D01*
X+2226999Y+8550799D01*
X+2379041Y+8550799D01*
X+3210301Y+7719539D01*
X+3210301Y+7819865D01*
X+3292135Y+7901699D01*
X+3299201Y+7901699D01*
X+3299201Y+9059459D01*
X+3209459Y+9149201D01*
X+2276999Y+9149201D01*
X+2276999Y+9147395D01*
X+2202605Y+9073001D01*
X+2097395Y+9073001D01*
X+2023001Y+9147395D01*
X+2023001Y+9252605D01*
X+2097395Y+9326999D01*
X+2202605Y+9326999D01*
X+2276999Y+9252605D01*
G37*
G36*
X+1115001Y+3447395D02*
X+1115001Y+3552605D01*
X+1189395Y+3626999D01*
X+1294605Y+3626999D01*
X+1368999Y+3552605D01*
X+1368999Y+3447395D01*
X+1294605Y+3373001D01*
X+1189395Y+3373001D01*
X+1115001Y+3447395D01*
G37*
G36*
X+1623001Y+3447395D02*
X+1623001Y+3552605D01*
X+1697395Y+3626999D01*
X+1802605Y+3626999D01*
X+1876999Y+3552605D01*
X+1876999Y+3447395D01*
X+1802605Y+3373001D01*
X+1697395Y+3373001D01*
X+1623001Y+3447395D01*
G37*
G36*
X+1115001Y+2685395D02*
X+1115001Y+2790605D01*
X+1189395Y+2864999D01*
X+1294605Y+2864999D01*
X+1368999Y+2790605D01*
X+1368999Y+2685395D01*
X+1294605Y+2611001D01*
X+1189395Y+2611001D01*
X+1115001Y+2685395D01*
G37*
G36*
X+1876999Y+2790605D02*
X+1876999Y+2685395D01*
X+1802605Y+2611001D01*
X+1792798Y+2611001D01*
X+1792799Y+2576999D01*
X+1794605Y+2576999D01*
X+1868999Y+2502605D01*
X+1868999Y+2397395D01*
X+1794605Y+2323001D01*
X+1689395Y+2323001D01*
X+1615001Y+2397395D01*
X+1615001Y+2399201D01*
X+1468999Y+2399201D01*
X+1468999Y+2397395D01*
X+1394605Y+2323001D01*
X+1289395Y+2323001D01*
X+1215001Y+2397395D01*
X+1215001Y+2502605D01*
X+1289395Y+2576999D01*
X+1394605Y+2576999D01*
X+1468999Y+2502605D01*
X+1468999Y+2500799D01*
X+1615001Y+2500799D01*
X+1615001Y+2502605D01*
X+1689395Y+2576999D01*
X+1691201Y+2576999D01*
X+1691202Y+2617194D01*
X+1623001Y+2685395D01*
X+1623001Y+2790605D01*
X+1697395Y+2864999D01*
X+1802605Y+2864999D01*
X+1876999Y+2790605D01*
G37*
G36*
X+1907001Y+3459395D02*
X+1907001Y+3564605D01*
X+1981395Y+3638999D01*
X+2086605Y+3638999D01*
X+2160999Y+3564605D01*
X+2160999Y+3459395D01*
X+2086605Y+3385001D01*
X+1981395Y+3385001D01*
X+1907001Y+3459395D01*
G37*
G36*
X+2415001Y+3459395D02*
X+2415001Y+3564605D01*
X+2489395Y+3638999D01*
X+2594605Y+3638999D01*
X+2668999Y+3564605D01*
X+2668999Y+3459395D01*
X+2594605Y+3385001D01*
X+2489395Y+3385001D01*
X+2415001Y+3459395D01*
G37*
G36*
X+1907001Y+2697395D02*
X+1907001Y+2802605D01*
X+1981395Y+2876999D01*
X+2086605Y+2876999D01*
X+2160999Y+2802605D01*
X+2160999Y+2697395D01*
X+2086605Y+2623001D01*
X+1981395Y+2623001D01*
X+1907001Y+2697395D01*
G37*
G36*
X+2668999Y+2802605D02*
X+2668999Y+2697395D01*
X+2594605Y+2623001D01*
X+2592799Y+2623001D01*
X+2592799Y+2576999D01*
X+2594605Y+2576999D01*
X+2668999Y+2502605D01*
X+2668999Y+2397395D01*
X+2594605Y+2323001D01*
X+2489395Y+2323001D01*
X+2415001Y+2397395D01*
X+2415001Y+2399201D01*
X+2318999Y+2399201D01*
X+2318999Y+2397395D01*
X+2244605Y+2323001D01*
X+2139395Y+2323001D01*
X+2065001Y+2397395D01*
X+2065001Y+2502605D01*
X+2139395Y+2576999D01*
X+2244605Y+2576999D01*
X+2318999Y+2502605D01*
X+2318999Y+2500799D01*
X+2415001Y+2500799D01*
X+2415001Y+2502605D01*
X+2489395Y+2576999D01*
X+2491201Y+2576999D01*
X+2491201Y+2623001D01*
X+2489395Y+2623001D01*
X+2415001Y+2697395D01*
X+2415001Y+2802605D01*
X+2489395Y+2876999D01*
X+2594605Y+2876999D01*
X+2668999Y+2802605D01*
G37*
G36*
X+2715001Y+3447395D02*
X+2715001Y+3552605D01*
X+2789395Y+3626999D01*
X+2894605Y+3626999D01*
X+2968999Y+3552605D01*
X+2968999Y+3447395D01*
X+2894605Y+3373001D01*
X+2789395Y+3373001D01*
X+2715001Y+3447395D01*
G37*
G36*
X+3223001Y+3447395D02*
X+3223001Y+3552605D01*
X+3297395Y+3626999D01*
X+3402605Y+3626999D01*
X+3476999Y+3552605D01*
X+3476999Y+3447395D01*
X+3402605Y+3373001D01*
X+3297395Y+3373001D01*
X+3223001Y+3447395D01*
G37*
G36*
X+2715001Y+2685395D02*
X+2715001Y+2790605D01*
X+2789395Y+2864999D01*
X+2894605Y+2864999D01*
X+2968999Y+2790605D01*
X+2968999Y+2685395D01*
X+2894605Y+2611001D01*
X+2789395Y+2611001D01*
X+2715001Y+2685395D01*
G37*
G36*
X+3476999Y+2790605D02*
X+3476999Y+2685395D01*
X+3402605Y+2611001D01*
X+3392798Y+2611001D01*
X+3392799Y+2576999D01*
X+3394605Y+2576999D01*
X+3468999Y+2502605D01*
X+3468999Y+2397395D01*
X+3394605Y+2323001D01*
X+3289395Y+2323001D01*
X+3215001Y+2397395D01*
X+3215001Y+2399201D01*
X+3118999Y+2399201D01*
X+3118999Y+2397395D01*
X+3044605Y+2323001D01*
X+2939395Y+2323001D01*
X+2865001Y+2397395D01*
X+2865001Y+2502605D01*
X+2939395Y+2576999D01*
X+3044605Y+2576999D01*
X+3118999Y+2502605D01*
X+3118999Y+2500799D01*
X+3215001Y+2500799D01*
X+3215001Y+2502605D01*
X+3289395Y+2576999D01*
X+3291201Y+2576999D01*
X+3291202Y+2617194D01*
X+3223001Y+2685395D01*
X+3223001Y+2790605D01*
X+3297395Y+2864999D01*
X+3402605Y+2864999D01*
X+3476999Y+2790605D01*
G37*
G36*
X+3615001Y+3447395D02*
X+3615001Y+3552605D01*
X+3689395Y+3626999D01*
X+3794605Y+3626999D01*
X+3868999Y+3552605D01*
X+3868999Y+3447395D01*
X+3794605Y+3373001D01*
X+3689395Y+3373001D01*
X+3615001Y+3447395D01*
G37*
G36*
X+4123001Y+3447395D02*
X+4123001Y+3552605D01*
X+4197395Y+3626999D01*
X+4302605Y+3626999D01*
X+4376999Y+3552605D01*
X+4376999Y+3447395D01*
X+4302605Y+3373001D01*
X+4197395Y+3373001D01*
X+4123001Y+3447395D01*
G37*
G36*
X+3615001Y+2685395D02*
X+3615001Y+2790605D01*
X+3689395Y+2864999D01*
X+3794605Y+2864999D01*
X+3868999Y+2790605D01*
X+3868999Y+2685395D01*
X+3794605Y+2611001D01*
X+3689395Y+2611001D01*
X+3615001Y+2685395D01*
G37*
G36*
X+4376999Y+2790605D02*
X+4376999Y+2685395D01*
X+4302605Y+2611001D01*
X+4292798Y+2611001D01*
X+4292799Y+2576999D01*
X+4294605Y+2576999D01*
X+4368999Y+2502605D01*
X+4368999Y+2397395D01*
X+4294605Y+2323001D01*
X+4189395Y+2323001D01*
X+4115001Y+2397395D01*
X+4115001Y+2399201D01*
X+4018999Y+2399201D01*
X+4018999Y+2397395D01*
X+3944605Y+2323001D01*
X+3839395Y+2323001D01*
X+3765001Y+2397395D01*
X+3765001Y+2502605D01*
X+3839395Y+2576999D01*
X+3944605Y+2576999D01*
X+4018999Y+2502605D01*
X+4018999Y+2500799D01*
X+4115001Y+2500799D01*
X+4115001Y+2502605D01*
X+4189395Y+2576999D01*
X+4191201Y+2576999D01*
X+4191202Y+2617194D01*
X+4123001Y+2685395D01*
X+4123001Y+2790605D01*
X+4197395Y+2864999D01*
X+4302605Y+2864999D01*
X+4376999Y+2790605D01*
G37*
G36*
X+4415001Y+3447395D02*
X+4415001Y+3552605D01*
X+4489395Y+3626999D01*
X+4594605Y+3626999D01*
X+4668999Y+3552605D01*
X+4668999Y+3447395D01*
X+4594605Y+3373001D01*
X+4489395Y+3373001D01*
X+4415001Y+3447395D01*
G37*
G36*
X+4923001Y+3447395D02*
X+4923001Y+3552605D01*
X+4997395Y+3626999D01*
X+5102605Y+3626999D01*
X+5176999Y+3552605D01*
X+5176999Y+3447395D01*
X+5102605Y+3373001D01*
X+4997395Y+3373001D01*
X+4923001Y+3447395D01*
G37*
G36*
X+4415001Y+2685395D02*
X+4415001Y+2790605D01*
X+4489395Y+2864999D01*
X+4594605Y+2864999D01*
X+4668999Y+2790605D01*
X+4668999Y+2685395D01*
X+4594605Y+2611001D01*
X+4489395Y+2611001D01*
X+4415001Y+2685395D01*
G37*
G36*
X+5176999Y+2790605D02*
X+5176999Y+2685395D01*
X+5102605Y+2611001D01*
X+5092798Y+2611001D01*
X+5092799Y+2576999D01*
X+5094605Y+2576999D01*
X+5168999Y+2502605D01*
X+5168999Y+2397395D01*
X+5094605Y+2323001D01*
X+4989395Y+2323001D01*
X+4915001Y+2397395D01*
X+4915001Y+2399201D01*
X+4818999Y+2399201D01*
X+4818999Y+2397395D01*
X+4744605Y+2323001D01*
X+4639395Y+2323001D01*
X+4565001Y+2397395D01*
X+4565001Y+2502605D01*
X+4639395Y+2576999D01*
X+4744605Y+2576999D01*
X+4818999Y+2502605D01*
X+4818999Y+2500799D01*
X+4915001Y+2500799D01*
X+4915001Y+2502605D01*
X+4989395Y+2576999D01*
X+4991201Y+2576999D01*
X+4991202Y+2617194D01*
X+4923001Y+2685395D01*
X+4923001Y+2790605D01*
X+4997395Y+2864999D01*
X+5102605Y+2864999D01*
X+5176999Y+2790605D01*
G37*
G36*
X+5265001Y+3447395D02*
X+5265001Y+3552605D01*
X+5339395Y+3626999D01*
X+5444605Y+3626999D01*
X+5518999Y+3552605D01*
X+5518999Y+3447395D01*
X+5444605Y+3373001D01*
X+5339395Y+3373001D01*
X+5265001Y+3447395D01*
G37*
G36*
X+5773001Y+3447395D02*
X+5773001Y+3552605D01*
X+5847395Y+3626999D01*
X+5952605Y+3626999D01*
X+6026999Y+3552605D01*
X+6026999Y+3447395D01*
X+5952605Y+3373001D01*
X+5847395Y+3373001D01*
X+5773001Y+3447395D01*
G37*
G36*
X+5265001Y+2685395D02*
X+5265001Y+2790605D01*
X+5339395Y+2864999D01*
X+5444605Y+2864999D01*
X+5518999Y+2790605D01*
X+5518999Y+2685395D01*
X+5444605Y+2611001D01*
X+5339395Y+2611001D01*
X+5265001Y+2685395D01*
G37*
G36*
X+6026999Y+2790605D02*
X+6026999Y+2685395D01*
X+5952605Y+2611001D01*
X+5942798Y+2611001D01*
X+5942799Y+2576999D01*
X+5944605Y+2576999D01*
X+6018999Y+2502605D01*
X+6018999Y+2397395D01*
X+5944605Y+2323001D01*
X+5839395Y+2323001D01*
X+5765001Y+2397395D01*
X+5765001Y+2399201D01*
X+5568999Y+2399201D01*
X+5568999Y+2397395D01*
X+5494605Y+2323001D01*
X+5389395Y+2323001D01*
X+5315001Y+2397395D01*
X+5315001Y+2502605D01*
X+5389395Y+2576999D01*
X+5494605Y+2576999D01*
X+5568999Y+2502605D01*
X+5568999Y+2500799D01*
X+5765001Y+2500799D01*
X+5765001Y+2502605D01*
X+5839395Y+2576999D01*
X+5841201Y+2576999D01*
X+5841202Y+2617194D01*
X+5773001Y+2685395D01*
X+5773001Y+2790605D01*
X+5847395Y+2864999D01*
X+5952605Y+2864999D01*
X+6026999Y+2790605D01*
G37*
G36*
X+6115001Y+3447395D02*
X+6115001Y+3552605D01*
X+6189395Y+3626999D01*
X+6294605Y+3626999D01*
X+6368999Y+3552605D01*
X+6368999Y+3447395D01*
X+6294605Y+3373001D01*
X+6189395Y+3373001D01*
X+6115001Y+3447395D01*
G37*
G36*
X+6623001Y+3447395D02*
X+6623001Y+3552605D01*
X+6697395Y+3626999D01*
X+6802605Y+3626999D01*
X+6876999Y+3552605D01*
X+6876999Y+3447395D01*
X+6802605Y+3373001D01*
X+6697395Y+3373001D01*
X+6623001Y+3447395D01*
G37*
G36*
X+6115001Y+2685395D02*
X+6115001Y+2790605D01*
X+6189395Y+2864999D01*
X+6294605Y+2864999D01*
X+6368999Y+2790605D01*
X+6368999Y+2685395D01*
X+6294605Y+2611001D01*
X+6189395Y+2611001D01*
X+6115001Y+2685395D01*
G37*
G36*
X+6876999Y+2790605D02*
X+6876999Y+2685395D01*
X+6802605Y+2611001D01*
X+6792798Y+2611001D01*
X+6792799Y+2576999D01*
X+6794605Y+2576999D01*
X+6868999Y+2502605D01*
X+6868999Y+2397395D01*
X+6794605Y+2323001D01*
X+6689395Y+2323001D01*
X+6615001Y+2397395D01*
X+6615001Y+2399201D01*
X+6518999Y+2399201D01*
X+6518999Y+2397395D01*
X+6444605Y+2323001D01*
X+6339395Y+2323001D01*
X+6265001Y+2397395D01*
X+6265001Y+2502605D01*
X+6339395Y+2576999D01*
X+6444605Y+2576999D01*
X+6518999Y+2502605D01*
X+6518999Y+2500799D01*
X+6615001Y+2500799D01*
X+6615001Y+2502605D01*
X+6689395Y+2576999D01*
X+6691201Y+2576999D01*
X+6691202Y+2617194D01*
X+6623001Y+2685395D01*
X+6623001Y+2790605D01*
X+6697395Y+2864999D01*
X+6802605Y+2864999D01*
X+6876999Y+2790605D01*
G37*
G36*
X+6915001Y+3447395D02*
X+6915001Y+3552605D01*
X+6989395Y+3626999D01*
X+7094605Y+3626999D01*
X+7168999Y+3552605D01*
X+7168999Y+3447395D01*
X+7094605Y+3373001D01*
X+6989395Y+3373001D01*
X+6915001Y+3447395D01*
G37*
G36*
X+7423001Y+3447395D02*
X+7423001Y+3552605D01*
X+7497395Y+3626999D01*
X+7602605Y+3626999D01*
X+7676999Y+3552605D01*
X+7676999Y+3447395D01*
X+7602605Y+3373001D01*
X+7497395Y+3373001D01*
X+7423001Y+3447395D01*
G37*
G36*
X+6915001Y+2685395D02*
X+6915001Y+2790605D01*
X+6989395Y+2864999D01*
X+7094605Y+2864999D01*
X+7168999Y+2790605D01*
X+7168999Y+2685395D01*
X+7094605Y+2611001D01*
X+6989395Y+2611001D01*
X+6915001Y+2685395D01*
G37*
G36*
X+7676999Y+2790605D02*
X+7676999Y+2685395D01*
X+7629472Y+2637868D01*
X+7642799Y+2624541D01*
X+7642799Y+2576999D01*
X+7644605Y+2576999D01*
X+7718999Y+2502605D01*
X+7718999Y+2397395D01*
X+7644605Y+2323001D01*
X+7539395Y+2323001D01*
X+7465001Y+2397395D01*
X+7465001Y+2399201D01*
X+7450541Y+2399201D01*
X+7400541Y+2349201D01*
X+7318999Y+2349201D01*
X+7318999Y+2347395D01*
X+7244605Y+2273001D01*
X+7139395Y+2273001D01*
X+7065001Y+2347395D01*
X+7065001Y+2452605D01*
X+7139395Y+2526999D01*
X+7244605Y+2526999D01*
X+7318999Y+2452605D01*
X+7318999Y+2450799D01*
X+7358459Y+2450799D01*
X+7408459Y+2500799D01*
X+7465001Y+2500799D01*
X+7465001Y+2502605D01*
X+7522028Y+2559632D01*
X+7499201Y+2582459D01*
X+7499201Y+2611001D01*
X+7497395Y+2611001D01*
X+7423001Y+2685395D01*
X+7423001Y+2790605D01*
X+7497395Y+2864999D01*
X+7602605Y+2864999D01*
X+7676999Y+2790605D01*
G37*
G36*
X+8865001Y+3497395D02*
X+8865001Y+3602605D01*
X+8939395Y+3676999D01*
X+9044605Y+3676999D01*
X+9118999Y+3602605D01*
X+9118999Y+3497395D01*
X+9044605Y+3423001D01*
X+8939395Y+3423001D01*
X+8865001Y+3497395D01*
G37*
G36*
X+13365001Y+3447395D02*
X+13365001Y+3552605D01*
X+13439395Y+3626999D01*
X+13544605Y+3626999D01*
X+13618999Y+3552605D01*
X+13618999Y+3447395D01*
X+13544605Y+3373001D01*
X+13439395Y+3373001D01*
X+13365001Y+3447395D01*
G37*
%LPD*%
G36*
X+872461Y+9389699D02*
X+613539Y+9389699D01*
X+634541Y+9410701D01*
X+851459Y+9410701D01*
X+872461Y+9389699D01*
G37*
G36*
X+817959Y+8305799D02*
X+634541Y+8305799D01*
X+600799Y+8339541D01*
X+600799Y+8360301D01*
X+872461Y+8360301D01*
X+817959Y+8305799D01*
G37*
G36*
X+922461Y+7889699D02*
X+600799Y+7889699D01*
X+600799Y+7916459D01*
X+634541Y+7950201D01*
X+861959Y+7950201D01*
X+922461Y+7889699D01*
G37*
G36*
X+907459Y+6845299D02*
X+634541Y+6845299D01*
X+619539Y+6860301D01*
X+922461Y+6860301D01*
X+907459Y+6845299D01*
G37*
G36*
X+857959Y+4495799D02*
X+634541Y+4495799D01*
X+600799Y+4529541D01*
X+600799Y+4560301D01*
X+922461Y+4560301D01*
X+857959Y+4495799D01*
G37*
G36*
X+922461Y+4089699D02*
X+600799Y+4089699D01*
X+600799Y+4106459D01*
X+634542Y+4140202D01*
X+871958Y+4140202D01*
X+922461Y+4089699D01*
G37*
D10*
X+11291300Y+6651400D02*
X+12362000Y+7722100D01*
X+12362000Y+9050000D01*
X+10288000Y+8150000D02*
X+10288000Y+9271000D01*
X+10351500Y+9334500D01*
X+11823500Y+9334500D01*
X+12108000Y+9050000D01*
X+10542000Y+8150000D02*
X+10542000Y+9144000D01*
X+10605500Y+9207500D01*
X+11696500Y+9207500D01*
X+11854000Y+9050000D01*
X+11304000Y+8150000D02*
X+11600000Y+8446000D01*
X+11600000Y+9050000D01*
X+7150000Y+6722000D02*
X+7585500Y+6286500D01*
X+10795000Y+6286500D01*
X+10910300Y+6401800D01*
X+10910300Y+7429500D01*
X+11050000Y+7569200D01*
X+11050000Y+8150000D01*
X+7150000Y+6976000D02*
X+6858000Y+7268000D01*
X+6858000Y+8763000D01*
X+6921500Y+8826500D01*
X+9969500Y+8826500D01*
X+10034000Y+8762000D01*
X+10034000Y+8150000D01*
X+7150000Y+7230000D02*
X+8064500Y+7230000D01*
X+8881000Y+6413500D01*
X+10783300Y+6413500D01*
X+10783300Y+6651400D01*
X+10275300Y+6651400D02*
X+10100900Y+6477000D01*
X+9461500Y+6477000D01*
X+8454500Y+7484000D01*
X+7150000Y+7484000D01*
X+7150000Y+7738000D02*
X+8934700Y+7738000D01*
X+10021300Y+6651400D01*
X+7150000Y+7992000D02*
X+7556500Y+7992000D01*
X+7738000Y+7810500D01*
X+10287000Y+7810500D01*
X+10402300Y+7695200D01*
X+10402300Y+6540500D01*
X+10465800Y+6477000D01*
X+10541000Y+6477000D01*
X+10656300Y+6592300D01*
X+10656300Y+7620000D01*
X+10796000Y+7759700D01*
X+10796000Y+8150000D01*
X+7150000Y+8246000D02*
X+6985000Y+8411000D01*
X+6985000Y+8636000D01*
X+7048500Y+8699500D01*
X+9080500Y+8699500D01*
X+9779000Y+8001000D01*
X+10604500Y+8001000D01*
X+10669000Y+8065500D01*
X+10669000Y+8318500D01*
X+10732500Y+8382000D01*
X+11112500Y+8382000D01*
X+11177000Y+8317500D01*
X+11177000Y+7493000D01*
X+11037300Y+7353300D01*
X+11037300Y+6651400D01*
X+7150000Y+8500000D02*
X+7747000Y+8500000D01*
X+8373000Y+7874000D01*
X+10414000Y+7874000D01*
X+10529300Y+7758700D01*
X+10529300Y+6651400D01*
X+6058000Y+7800000D02*
X+6286500Y+8028500D01*
X+6286500Y+8487500D01*
X+6074000Y+8700000D01*
X+5804000Y+7800000D02*
X+5804000Y+8318500D01*
X+5820000Y+8334500D01*
X+5820000Y+8700000D01*
X+5550000Y+7800000D02*
X+5550000Y+8318500D01*
X+5566000Y+8334500D01*
X+5566000Y+8700000D01*
X+5296000Y+7800000D02*
X+5296000Y+8318500D01*
X+5312000Y+8334500D01*
X+5312000Y+8700000D01*
X+5042000Y+7800000D02*
X+5042000Y+8191500D01*
X+5058000Y+8207500D01*
X+5058000Y+8700000D01*
X+4788000Y+7800000D02*
X+4788000Y+8318500D01*
X+4804000Y+8334500D01*
X+4804000Y+8700000D01*
X+4534000Y+7800000D02*
X+4534000Y+8382000D01*
X+4550000Y+8398000D01*
X+4550000Y+8700000D01*
X+4280000Y+7800000D02*
X+4064000Y+8016000D01*
X+4064000Y+8468000D01*
X+4296000Y+8700000D01*
X+10150000Y+2150000D02*
X+10150000Y+2900000D01*
X+9500000Y+3550000D01*
X+10404000Y+2150000D02*
X+10404000Y+2349500D01*
X+10372000Y+2381500D01*
X+10372000Y+3600000D01*
X+10658000Y+2150000D02*
X+10658000Y+3111500D01*
X+10626000Y+3143500D01*
X+10626000Y+3600000D01*
X+10912000Y+2150000D02*
X+10912000Y+2794000D01*
X+10880000Y+2826000D01*
X+10880000Y+3600000D01*
X+11166000Y+2150000D02*
X+11166000Y+3048000D01*
X+11134000Y+3080000D01*
X+11134000Y+3600000D01*
X+11420000Y+2150000D02*
X+11420000Y+2476500D01*
X+11388000Y+2508500D01*
X+11388000Y+3600000D01*
X+11674000Y+2150000D02*
X+11674000Y+3238500D01*
X+11642000Y+3270500D01*
X+11642000Y+3600000D01*
X+11928000Y+2150000D02*
X+11928000Y+2921000D01*
X+11896000Y+2953000D01*
X+11896000Y+3600000D01*
X+12182000Y+2150000D02*
X+12182000Y+3175000D01*
X+12150000Y+3207000D01*
X+12150000Y+3600000D01*
X+12436000Y+2150000D02*
X+12436000Y+2603500D01*
X+12404000Y+2635500D01*
X+12404000Y+3600000D01*
X+12944000Y+2150000D02*
X+12944000Y+3314000D01*
X+12658000Y+3600000D01*
X+13198000Y+2150000D02*
X+13198000Y+1905000D01*
X+13261500Y+1841500D01*
X+14414500Y+1841500D01*
X+14508000Y+1935000D01*
X+14508000Y+3500000D01*
X+6350000Y+5200000D02*
X+7350000Y+5200000D01*
X+3350000Y+7762000D02*
X+3350000Y+9080500D01*
X+3230500Y+9200000D01*
X+2150000Y+9200000D01*
X+3350000Y+7508000D02*
X+2358000Y+8500000D01*
X+2100000Y+8500000D01*
X+3350000Y+7254000D02*
X+2646000Y+7254000D01*
X+2150000Y+7750000D01*
X+3350000Y+7000000D02*
X+2150000Y+7000000D01*
X+3350000Y+6746000D02*
X+2286000Y+6746000D01*
X+2200000Y+6660000D01*
X+2200000Y+6200000D01*
X+3350000Y+6492000D02*
X+2540000Y+6492000D01*
X+2457170Y+6409170D01*
X+2457170Y+5707170D01*
X+2200000Y+5450000D01*
X+3350000Y+6238000D02*
X+2621352Y+5509352D01*
X+2621352Y+5171352D01*
X+2150000Y+4700000D01*
X+3350000Y+5984000D02*
X+3350000Y+5150000D01*
X+2150000Y+3950000D01*
X+550000Y+3950000D02*
X+550000Y+4127500D01*
X+613500Y+4191000D01*
X+893000Y+4191000D01*
X+1134000Y+3950000D01*
X+550000Y+4700000D02*
X+550000Y+4508500D01*
X+613500Y+4445000D01*
X+879000Y+4445000D01*
X+1134000Y+4700000D01*
X+550000Y+5450000D02*
X+550000Y+5651500D01*
X+613500Y+5715000D01*
X+919000Y+5715000D01*
X+1184000Y+5450000D01*
X+554000Y+6200000D02*
X+554000Y+6350000D01*
X+617500Y+6413500D01*
X+970500Y+6413500D01*
X+1184000Y+6200000D01*
X+550000Y+7000000D02*
X+550000Y+6858000D01*
X+613500Y+6794500D01*
X+928500Y+6794500D01*
X+1134000Y+7000000D01*
X+550000Y+7750000D02*
X+550000Y+7937500D01*
X+613500Y+8001000D01*
X+883000Y+8001000D01*
X+1134000Y+7750000D01*
X+550000Y+8500000D02*
X+550000Y+8318500D01*
X+613500Y+8255000D01*
X+839000Y+8255000D01*
X+1084000Y+8500000D01*
X+550000Y+9250000D02*
X+550000Y+9398000D01*
X+613500Y+9461500D01*
X+872500Y+9461500D01*
X+1134000Y+9200000D01*
X+7592000Y+2450000D02*
X+7429500Y+2450000D01*
X+7379500Y+2400000D01*
X+7192000Y+2400000D01*
X+7592000Y+2450000D02*
X+7592000Y+2603500D01*
X+7550000Y+2603500D01*
X+7550000Y+2738000D01*
X+5266000Y+700000D02*
X+6508000Y+700000D01*
X+7192000Y+1384000D01*
X+6742000Y+2450000D02*
X+6742000Y+2730000D01*
X+6750000Y+2738000D01*
X+6742000Y+2450000D02*
X+6392000Y+2450000D01*
X+5012000Y+700000D02*
X+5201000Y+889000D01*
X+5847000Y+889000D01*
X+6392000Y+1434000D01*
X+5892000Y+2450000D02*
X+5892000Y+2730000D01*
X+5900000Y+2738000D01*
X+5892000Y+2450000D02*
X+5442000Y+2450000D01*
X+4758000Y+700000D02*
X+5010500Y+952500D01*
X+5410500Y+952500D01*
X+5892000Y+1434000D01*
X+5042000Y+2450000D02*
X+5042000Y+2730000D01*
X+5050000Y+2738000D01*
X+5042000Y+2450000D02*
X+4692000Y+2450000D01*
X+4504000Y+700000D02*
X+5042000Y+1238000D01*
X+5042000Y+1434000D01*
X+4242000Y+2450000D02*
X+4242000Y+2730000D01*
X+4250000Y+2738000D01*
X+4242000Y+2450000D02*
X+3892000Y+2450000D01*
X+4250000Y+700000D02*
X+4250000Y+952500D01*
X+4242000Y+960500D01*
X+4242000Y+1434000D01*
X+3342000Y+2450000D02*
X+3342000Y+2730000D01*
X+3350000Y+2738000D01*
X+3342000Y+2450000D02*
X+2992000Y+2450000D01*
X+3996000Y+700000D02*
X+3996000Y+1079500D01*
X+3932500Y+1143000D01*
X+3633000Y+1143000D01*
X+3342000Y+1434000D01*
X+2542000Y+2450000D02*
X+2192000Y+2450000D01*
X+2542000Y+2450000D02*
X+2542000Y+2750000D01*
X+3742000Y+700000D02*
X+3433065Y+1008935D01*
X+2967065Y+1008935D01*
X+2542000Y+1434000D01*
X+1742000Y+2450000D02*
X+1742000Y+2730000D01*
X+1750000Y+2738000D01*
X+1742000Y+2450000D02*
X+1342000Y+2450000D01*
X+3488000Y+700000D02*
X+2076000Y+700000D01*
X+1342000Y+1434000D01*
X+14000000Y+6546000D02*
X+14160500Y+6706500D01*
X+14160500Y+6985000D01*
X+14097000Y+7048500D01*
X+13589000Y+7048500D01*
X+12589804Y+6049304D01*
X+6159500Y+6049304D01*
X+6096000Y+5985804D01*
X+6096000Y+4762500D01*
X+6159500Y+4699000D01*
X+6921500Y+4699000D01*
X+6985000Y+4762500D01*
X+14000000Y+6546000D02*
X+14000000Y+5842000D01*
X+14160500Y+5681500D01*
X+14160500Y+2032000D01*
X+14097000Y+1968500D01*
X+13398500Y+1968500D01*
X+13335000Y+2032000D01*
X+13335000Y+2222500D01*
X+9896000Y+2150000D02*
X+8992000Y+3054000D01*
X+8992000Y+3550000D01*
X+1270000Y+7239000D02*
X+1270000Y+8572500D01*
X+1206500Y+8636000D01*
X+1016000Y+8636000D01*
X+952500Y+8699500D02*
X+1016000Y+8636000D01*
X+9896000Y+2150000D02*
X+10014000Y+2032000D01*
X+12572000Y+2032000D01*
X+12690000Y+2150000D01*
X+1270000Y+6032500D02*
X+1397000Y+5905500D01*
X+1397000Y+4953000D01*
X+1333500Y+4889500D01*
X+1397000Y+3683000D02*
X+1397000Y+4826000D01*
X+1333500Y+4889500D01*
X+13652500Y+2349500D02*
X+13492000Y+2510000D01*
X+13492000Y+3500000D01*
X+12690000Y+2150000D02*
X+12808000Y+2032000D01*
X+13017500Y+2032000D01*
X+13081000Y+2095500D01*
X+13081000Y+2222500D01*
X+13144500Y+2286000D01*
X+13271500Y+2286000D01*
X+13335000Y+2222500D01*
X+1397000Y+3683000D02*
X+1071000Y+3683000D01*
X+804000Y+3950000D01*
X+1270000Y+6032500D02*
X+1333500Y+6096000D01*
X+1333500Y+7175500D01*
X+1270000Y+7239000D01*
X+6985000Y+4762500D02*
X+7168500Y+4946000D01*
X+7350000Y+4946000D01*
X+1270000Y+6032500D02*
X+975500Y+6032500D01*
X+808000Y+6200000D01*
X+952500Y+8699500D02*
X+952500Y+9101500D01*
X+804000Y+9250000D01*
X+7042000Y+3500000D02*
X+7042000Y+4705500D01*
X+6985000Y+4762500D01*
X+804000Y+7000000D02*
X+1043000Y+7239000D01*
X+1270000Y+7239000D01*
X+1016000Y+8636000D02*
X+952500Y+8572500D01*
X+952500Y+8500000D01*
X+804000Y+8500000D01*
X+1397000Y+3683000D02*
X+1397000Y+3655000D01*
X+1242000Y+3500000D01*
X+2034000Y+3512000D02*
X+2205000Y+3683000D01*
X+2659000Y+3683000D01*
X+2842000Y+3500000D01*
X+13652500Y+2349500D02*
X+13706000Y+2296000D01*
X+13706000Y+2150000D01*
X+2842000Y+3500000D02*
X+3040000Y+3302000D01*
X+3544000Y+3302000D01*
X+3742000Y+3500000D01*
X+4542000Y+3500000D02*
X+4740000Y+3302000D01*
X+5194000Y+3302000D01*
X+5392000Y+3500000D01*
X+5638500Y+3746500D01*
X+5995500Y+3746500D01*
X+6242000Y+3500000D01*
X+3742000Y+3500000D02*
X+3988500Y+3746500D01*
X+4295500Y+3746500D01*
X+4542000Y+3500000D01*
X+6242000Y+3500000D02*
X+6440000Y+3302000D01*
X+6844000Y+3302000D01*
X+7042000Y+3500000D01*
X+804000Y+7000000D02*
X+804000Y+7750000D01*
X+2034000Y+3512000D02*
X+1863000Y+3683000D01*
X+1397000Y+3683000D01*
X+804000Y+4700000D02*
X+993500Y+4889500D01*
X+1333500Y+4889500D01*
X+804000Y+4700000D02*
X+804000Y+5450000D01*
X+13335000Y+2222500D02*
X+13398500Y+2286000D01*
X+13589000Y+2286000D01*
X+13652500Y+2349500D01*
X+13843000Y+3619500D02*
X+13652500Y+3810000D01*
X+8547500Y+3810000D01*
X+8484000Y+3550000D02*
X+8484000Y+3746500D01*
X+8547500Y+3810000D01*
X+14000000Y+3500000D02*
X+14000000Y+2095500D01*
X+13936500Y+2032000D01*
X+13570000Y+2032000D01*
X+13452000Y+2150000D01*
X+13843000Y+3619500D02*
X+13970000Y+3746500D01*
X+13970000Y+3937000D01*
X+13843000Y+4064000D01*
X+13843000Y+6643000D01*
X+14000000Y+6800000D01*
X+7592000Y+1434000D02*
X+8484000Y+2326000D01*
X+8484000Y+3550000D01*
X+4692000Y+1434000D02*
X+4845500Y+1587500D01*
X+5288500Y+1587500D01*
X+5442000Y+1434000D01*
X+5595500Y+1587500D01*
X+6604000Y+1587500D01*
X+6742000Y+1434000D02*
X+6895500Y+1587500D01*
X+7438500Y+1587500D01*
X+7592000Y+1434000D01*
X+2992000Y+1434000D02*
X+3145500Y+1587500D01*
X+3556000Y+1587500D01*
X+3709500Y+1434000D01*
X+3892000Y+1434000D01*
X+4045500Y+1587500D01*
X+4381500Y+1587500D01*
X+4535000Y+1434000D01*
X+4692000Y+1434000D01*
X+2192000Y+1434000D02*
X+2345500Y+1587500D01*
X+2603500Y+1587500D01*
X+2757000Y+1434000D01*
X+2992000Y+1434000D01*
X+2192000Y+1434000D02*
X+1742000Y+1434000D01*
X+8547500Y+3810000D02*
X+8547500Y+4256500D01*
X+7350000Y+5454000D01*
X+14000000Y+3500000D02*
X+13843000Y+3500000D01*
X+13843000Y+3619500D01*
X+6742000Y+1434000D02*
X+6692900Y+1434000D01*
X+6604000Y+1522900D01*
X+6604000Y+1587500D01*
X+14889040Y+110960D02*
X+10960Y+110960D01*
X+10960Y+9989040D01*
X+14889040Y+9989040D01*
X+14889040Y+110960D01*
X+1080118Y+9325722D02*
X+1081395Y+9326999D01*
X+1186605Y+9326999D01*
X+1260999Y+9252605D01*
X+1260999Y+9147395D01*
X+1186605Y+9073001D01*
X+1081395Y+9073001D01*
X+1007001Y+9147395D01*
X+1007001Y+9252605D01*
X+1008278Y+9253882D01*
X+943699Y+9318461D01*
X+943699Y+9110301D01*
X+410301Y+9110301D01*
X+410301Y+9389699D01*
X+499201Y+9389699D01*
X+499201Y+9419041D01*
X+592459Y+9512299D01*
X+893541Y+9512299D01*
X+1080118Y+9325722D01*
X+943699Y+8431539D02*
X+958278Y+8446118D01*
X+957001Y+8447395D01*
X+957001Y+8552605D01*
X+1031395Y+8626999D01*
X+1136605Y+8626999D01*
X+1210999Y+8552605D01*
X+1210999Y+8447395D01*
X+1136605Y+8373001D01*
X+1031395Y+8373001D01*
X+1030118Y+8374278D01*
X+860041Y+8204201D01*
X+592459Y+8204201D01*
X+499201Y+8297459D01*
X+499201Y+8360301D01*
X+410301Y+8360301D01*
X+410301Y+8639699D01*
X+943699Y+8639699D01*
X+943699Y+8431539D01*
X+1080118Y+7875722D02*
X+1081395Y+7876999D01*
X+1186605Y+7876999D01*
X+1260999Y+7802605D01*
X+1260999Y+7697395D01*
X+1186605Y+7623001D01*
X+1081395Y+7623001D01*
X+1007001Y+7697395D01*
X+1007001Y+7802605D01*
X+1008278Y+7803882D01*
X+943699Y+7868461D01*
X+943699Y+7610301D01*
X+410301Y+7610301D01*
X+410301Y+7889699D01*
X+499201Y+7889699D01*
X+499201Y+7958541D01*
X+592459Y+8051799D01*
X+904041Y+8051799D01*
X+1080118Y+7875722D01*
X+943699Y+6881539D02*
X+1008278Y+6946118D01*
X+1007001Y+6947395D01*
X+1007001Y+7052605D01*
X+1081395Y+7126999D01*
X+1186605Y+7126999D01*
X+1260999Y+7052605D01*
X+1260999Y+6947395D01*
X+1186605Y+6873001D01*
X+1081395Y+6873001D01*
X+1080118Y+6874278D01*
X+949541Y+6743701D01*
X+592459Y+6743701D01*
X+499201Y+6836959D01*
X+499201Y+6860301D01*
X+410301Y+6860301D01*
X+410301Y+7139699D01*
X+943699Y+7139699D01*
X+943699Y+6881539D01*
X+1130118Y+6325722D02*
X+1131395Y+6326999D01*
X+1236605Y+6326999D01*
X+1310999Y+6252605D01*
X+1310999Y+6147395D01*
X+1236605Y+6073001D01*
X+1131395Y+6073001D01*
X+1057001Y+6147395D01*
X+1057001Y+6252605D01*
X+1058278Y+6253882D01*
X+949459Y+6362701D01*
X+638541Y+6362701D01*
X+615539Y+6339699D01*
X+947699Y+6339699D01*
X+947699Y+6060301D01*
X+414301Y+6060301D01*
X+414301Y+6339699D01*
X+503201Y+6339699D01*
X+503201Y+6371041D01*
X+596459Y+6464299D01*
X+991541Y+6464299D01*
X+1130118Y+6325722D01*
X+1130118Y+5575722D02*
X+1131395Y+5576999D01*
X+1236605Y+5576999D01*
X+1310999Y+5502605D01*
X+1310999Y+5397395D01*
X+1236605Y+5323001D01*
X+1131395Y+5323001D01*
X+1057001Y+5397395D01*
X+1057001Y+5502605D01*
X+1058278Y+5503882D01*
X+897959Y+5664201D01*
X+634541Y+5664201D01*
X+600799Y+5630459D01*
X+600799Y+5589699D01*
X+943699Y+5589699D01*
X+943699Y+5310301D01*
X+410301Y+5310301D01*
X+410301Y+5589699D01*
X+499201Y+5589699D01*
X+499201Y+5672541D01*
X+592459Y+5765799D01*
X+940041Y+5765799D01*
X+1130118Y+5575722D01*
X+943699Y+4581539D02*
X+1008278Y+4646118D01*
X+1007001Y+4647395D01*
X+1007001Y+4752605D01*
X+1081395Y+4826999D01*
X+1186605Y+4826999D01*
X+1260999Y+4752605D01*
X+1260999Y+4647395D01*
X+1186605Y+4573001D01*
X+1081395Y+4573001D01*
X+1080118Y+4574278D01*
X+900041Y+4394201D01*
X+592459Y+4394201D01*
X+499201Y+4487459D01*
X+499201Y+4560301D01*
X+410301Y+4560301D01*
X+410301Y+4839699D01*
X+943699Y+4839699D01*
X+943699Y+4581539D01*
X+1080118Y+4075722D02*
X+1081395Y+4076999D01*
X+1186605Y+4076999D01*
X+1260999Y+4002605D01*
X+1260999Y+3897395D01*
X+1186605Y+3823001D01*
X+1081395Y+3823001D01*
X+1007001Y+3897395D01*
X+1007001Y+4002605D01*
X+1008278Y+4003882D01*
X+943699Y+4068461D01*
X+943699Y+3810301D01*
X+410301Y+3810301D01*
X+410301Y+4089699D01*
X+499201Y+4089699D01*
X+499201Y+4148541D01*
X+592458Y+4241798D01*
X+914042Y+4241798D01*
X+1080118Y+4075722D01*
X+12045138Y+9184702D02*
X+12050135Y+9189699D01*
X+12165865Y+9189699D01*
X+12235000Y+9120564D01*
X+12304135Y+9189699D01*
X+12419865Y+9189699D01*
X+12501699Y+9107865D01*
X+12501699Y+8992135D01*
X+12419865Y+8910301D01*
X+12412799Y+8910301D01*
X+12412799Y+7701059D01*
X+11417022Y+6705282D01*
X+11418299Y+6704005D01*
X+11418299Y+6598795D01*
X+11343905Y+6524401D01*
X+11238695Y+6524401D01*
X+11164301Y+6598795D01*
X+11164301Y+6704005D01*
X+11238695Y+6778399D01*
X+11343905Y+6778399D01*
X+11345182Y+6777122D01*
X+12311201Y+7743141D01*
X+12311201Y+8910301D01*
X+12304135Y+8910301D01*
X+12235000Y+8979436D01*
X+12165865Y+8910301D01*
X+12050135Y+8910301D01*
X+11981000Y+8979436D01*
X+11911865Y+8910301D01*
X+11796135Y+8910301D01*
X+11727000Y+8979436D01*
X+11657865Y+8910301D01*
X+11650799Y+8910301D01*
X+11650799Y+8424959D01*
X+11429722Y+8203882D01*
X+11430999Y+8202605D01*
X+11430999Y+8097395D01*
X+11356605Y+8023001D01*
X+11251395Y+8023001D01*
X+11227798Y+8046598D01*
X+11227798Y+7471958D01*
X+11088099Y+7332259D01*
X+11088099Y+6778399D01*
X+11089905Y+6778399D01*
X+11164299Y+6704005D01*
X+11164299Y+6598795D01*
X+11089905Y+6524401D01*
X+10984695Y+6524401D01*
X+10961099Y+6547997D01*
X+10961099Y+6380759D01*
X+10816041Y+6235701D01*
X+7564459Y+6235701D01*
X+7212862Y+6587298D01*
X+7207865Y+6582301D01*
X+7092135Y+6582301D01*
X+7010301Y+6664135D01*
X+7010301Y+6779865D01*
X+7079436Y+6849000D01*
X+7010301Y+6918135D01*
X+7010301Y+7033865D01*
X+7015298Y+7038862D01*
X+6807201Y+7246959D01*
X+6807201Y+8784041D01*
X+6900459Y+8877299D01*
X+9990541Y+8877299D01*
X+10084799Y+8783041D01*
X+10084799Y+8276999D01*
X+10086605Y+8276999D01*
X+10160999Y+8202605D01*
X+10160999Y+8097395D01*
X+10115402Y+8051798D01*
X+10206598Y+8051798D01*
X+10161001Y+8097395D01*
X+10161001Y+8202605D01*
X+10235395Y+8276999D01*
X+10237201Y+8276999D01*
X+10237202Y+9292042D01*
X+10330459Y+9385299D01*
X+11844541Y+9385299D01*
X+12045138Y+9184702D01*
X+6213699Y+8757865D02*
X+6213699Y+8642135D01*
X+6208702Y+8637138D01*
X+6337299Y+8508541D01*
X+6337299Y+8007459D01*
X+6192702Y+7862862D01*
X+6197699Y+7857865D01*
X+6197699Y+7742135D01*
X+6115865Y+7660301D01*
X+6000135Y+7660301D01*
X+5931000Y+7729436D01*
X+5861865Y+7660301D01*
X+5746135Y+7660301D01*
X+5677000Y+7729436D01*
X+5607865Y+7660301D01*
X+5492135Y+7660301D01*
X+5423000Y+7729436D01*
X+5353865Y+7660301D01*
X+5238135Y+7660301D01*
X+5169000Y+7729436D01*
X+5099865Y+7660301D01*
X+4984135Y+7660301D01*
X+4915000Y+7729436D01*
X+4845865Y+7660301D01*
X+4730135Y+7660301D01*
X+4661000Y+7729436D01*
X+4591865Y+7660301D01*
X+4476135Y+7660301D01*
X+4407000Y+7729436D01*
X+4337865Y+7660301D01*
X+4222135Y+7660301D01*
X+4140301Y+7742135D01*
X+4140301Y+7857865D01*
X+4145298Y+7862862D01*
X+4013201Y+7994959D01*
X+4013201Y+8489041D01*
X+4161298Y+8637138D01*
X+4156301Y+8642135D01*
X+4156301Y+8757865D01*
X+4238135Y+8839699D01*
X+4353865Y+8839699D01*
X+4423000Y+8770564D01*
X+4492135Y+8839699D01*
X+4607865Y+8839699D01*
X+4677000Y+8770564D01*
X+4746135Y+8839699D01*
X+4861865Y+8839699D01*
X+4931000Y+8770564D01*
X+5000135Y+8839699D01*
X+5115865Y+8839699D01*
X+5185000Y+8770564D01*
X+5254135Y+8839699D01*
X+5369865Y+8839699D01*
X+5439000Y+8770564D01*
X+5508135Y+8839699D01*
X+5623865Y+8839699D01*
X+5693000Y+8770564D01*
X+5762135Y+8839699D01*
X+5877865Y+8839699D01*
X+5947000Y+8770564D01*
X+6016135Y+8839699D01*
X+6131865Y+8839699D01*
X+6213699Y+8757865D01*
X+10010299Y+2197344D02*
X+10010299Y+2102656D01*
X+9943344Y+2035701D01*
X+9848656Y+2035701D01*
X+9781701Y+2102656D01*
X+9781701Y+2197344D01*
X+9848656Y+2264299D01*
X+9943344Y+2264299D01*
X+10010299Y+2197344D01*
X+9626999Y+3602605D02*
X+9626999Y+3497395D01*
X+9625722Y+3496118D01*
X+10200799Y+2921041D01*
X+10200799Y+2260844D01*
X+10264299Y+2197344D01*
X+10264299Y+2102656D01*
X+10197344Y+2035701D01*
X+10102656Y+2035701D01*
X+10035701Y+2102656D01*
X+10035701Y+2197344D01*
X+10099201Y+2260844D01*
X+10099201Y+2878959D01*
X+9553882Y+3424278D01*
X+9552605Y+3423001D01*
X+9447395Y+3423001D01*
X+9373001Y+3497395D01*
X+9373001Y+3602605D01*
X+9447395Y+3676999D01*
X+9552605Y+3676999D01*
X+9626999Y+3602605D01*
X+10486299Y+3647344D02*
X+10486299Y+3552656D01*
X+10422799Y+3489156D01*
X+10422799Y+2402541D01*
X+10454799Y+2370541D01*
X+10454799Y+2260844D01*
X+10518299Y+2197344D01*
X+10518299Y+2102656D01*
X+10451344Y+2035701D01*
X+10356656Y+2035701D01*
X+10289701Y+2102656D01*
X+10289701Y+2197344D01*
X+10353201Y+2260844D01*
X+10353201Y+2328459D01*
X+10321201Y+2360459D01*
X+10321201Y+3489156D01*
X+10257701Y+3552656D01*
X+10257701Y+3647344D01*
X+10324656Y+3714299D01*
X+10419344Y+3714299D01*
X+10486299Y+3647344D01*
X+10740299Y+3647344D02*
X+10740299Y+3552656D01*
X+10676799Y+3489156D01*
X+10676799Y+3164541D01*
X+10708799Y+3132541D01*
X+10708799Y+2260844D01*
X+10772299Y+2197344D01*
X+10772299Y+2102656D01*
X+10705344Y+2035701D01*
X+10610656Y+2035701D01*
X+10543701Y+2102656D01*
X+10543701Y+2197344D01*
X+10607201Y+2260844D01*
X+10607201Y+3090459D01*
X+10575201Y+3122459D01*
X+10575201Y+3489156D01*
X+10511701Y+3552656D01*
X+10511701Y+3647344D01*
X+10578656Y+3714299D01*
X+10673344Y+3714299D01*
X+10740299Y+3647344D01*
X+10994299Y+3647344D02*
X+10994299Y+3552656D01*
X+10930799Y+3489156D01*
X+10930799Y+2847041D01*
X+10962799Y+2815041D01*
X+10962799Y+2260844D01*
X+11026299Y+2197344D01*
X+11026299Y+2102656D01*
X+10959344Y+2035701D01*
X+10864656Y+2035701D01*
X+10797701Y+2102656D01*
X+10797701Y+2197344D01*
X+10861201Y+2260844D01*
X+10861201Y+2772959D01*
X+10829201Y+2804959D01*
X+10829201Y+3489156D01*
X+10765701Y+3552656D01*
X+10765701Y+3647344D01*
X+10832656Y+3714299D01*
X+10927344Y+3714299D01*
X+10994299Y+3647344D01*
X+11248299Y+3647344D02*
X+11248299Y+3552656D01*
X+11184799Y+3489156D01*
X+11184799Y+3101041D01*
X+11216799Y+3069041D01*
X+11216799Y+2260844D01*
X+11280299Y+2197344D01*
X+11280299Y+2102656D01*
X+11213344Y+2035701D01*
X+11118656Y+2035701D01*
X+11051701Y+2102656D01*
X+11051701Y+2197344D01*
X+11115201Y+2260844D01*
X+11115201Y+3026959D01*
X+11083201Y+3058959D01*
X+11083201Y+3489156D01*
X+11019701Y+3552656D01*
X+11019701Y+3647344D01*
X+11086656Y+3714299D01*
X+11181344Y+3714299D01*
X+11248299Y+3647344D01*
X+11502299Y+3647344D02*
X+11502299Y+3552656D01*
X+11438799Y+3489156D01*
X+11438799Y+2529541D01*
X+11470799Y+2497541D01*
X+11470799Y+2260844D01*
X+11534299Y+2197344D01*
X+11534299Y+2102656D01*
X+11467344Y+2035701D01*
X+11372656Y+2035701D01*
X+11305701Y+2102656D01*
X+11305701Y+2197344D01*
X+11369201Y+2260844D01*
X+11369201Y+2455459D01*
X+11337201Y+2487459D01*
X+11337201Y+3489156D01*
X+11273701Y+3552656D01*
X+11273701Y+3647344D01*
X+11340656Y+3714299D01*
X+11435344Y+3714299D01*
X+11502299Y+3647344D01*
X+11756299Y+3647344D02*
X+11756299Y+3552656D01*
X+11692799Y+3489156D01*
X+11692799Y+3291541D01*
X+11724799Y+3259541D01*
X+11724799Y+2260844D01*
X+11788299Y+2197344D01*
X+11788299Y+2102656D01*
X+11721344Y+2035701D01*
X+11626656Y+2035701D01*
X+11559701Y+2102656D01*
X+11559701Y+2197344D01*
X+11623201Y+2260844D01*
X+11623201Y+3217459D01*
X+11591201Y+3249459D01*
X+11591201Y+3489156D01*
X+11527701Y+3552656D01*
X+11527701Y+3647344D01*
X+11594656Y+3714299D01*
X+11689344Y+3714299D01*
X+11756299Y+3647344D01*
X+12010299Y+3647344D02*
X+12010299Y+3552656D01*
X+11946799Y+3489156D01*
X+11946799Y+2974041D01*
X+11978799Y+2942041D01*
X+11978799Y+2260844D01*
X+12042299Y+2197344D01*
X+12042299Y+2102656D01*
X+11975344Y+2035701D01*
X+11880656Y+2035701D01*
X+11813701Y+2102656D01*
X+11813701Y+2197344D01*
X+11877201Y+2260844D01*
X+11877201Y+2899959D01*
X+11845201Y+2931959D01*
X+11845201Y+3489156D01*
X+11781701Y+3552656D01*
X+11781701Y+3647344D01*
X+11848656Y+3714299D01*
X+11943344Y+3714299D01*
X+12010299Y+3647344D01*
X+12264299Y+3647344D02*
X+12264299Y+3552656D01*
X+12200799Y+3489156D01*
X+12200799Y+3228041D01*
X+12232799Y+3196041D01*
X+12232799Y+2260844D01*
X+12296299Y+2197344D01*
X+12296299Y+2102656D01*
X+12229344Y+2035701D01*
X+12134656Y+2035701D01*
X+12067701Y+2102656D01*
X+12067701Y+2197344D01*
X+12131201Y+2260844D01*
X+12131201Y+3153959D01*
X+12099201Y+3185959D01*
X+12099201Y+3489156D01*
X+12035701Y+3552656D01*
X+12035701Y+3647344D01*
X+12102656Y+3714299D01*
X+12197344Y+3714299D01*
X+12264299Y+3647344D01*
X+12518299Y+3647344D02*
X+12518299Y+3552656D01*
X+12454799Y+3489156D01*
X+12454799Y+2656541D01*
X+12486799Y+2624541D01*
X+12486799Y+2260844D01*
X+12550299Y+2197344D01*
X+12550299Y+2102656D01*
X+12483344Y+2035701D01*
X+12388656Y+2035701D01*
X+12321701Y+2102656D01*
X+12321701Y+2197344D01*
X+12385201Y+2260844D01*
X+12385201Y+2582459D01*
X+12353201Y+2614459D01*
X+12353201Y+3489156D01*
X+12289701Y+3552656D01*
X+12289701Y+3647344D01*
X+12356656Y+3714299D01*
X+12451344Y+3714299D01*
X+12518299Y+3647344D01*
X+12804299Y+2197344D02*
X+12804299Y+2102656D01*
X+12737344Y+2035701D01*
X+12642656Y+2035701D01*
X+12575701Y+2102656D01*
X+12575701Y+2197344D01*
X+12642656Y+2264299D01*
X+12737344Y+2264299D01*
X+12804299Y+2197344D01*
X+12772299Y+3647344D02*
X+12772299Y+3557541D01*
X+12994799Y+3335041D01*
X+12994799Y+2260844D01*
X+13058299Y+2197344D01*
X+13058299Y+2102656D01*
X+12991344Y+2035701D01*
X+12896656Y+2035701D01*
X+12829701Y+2102656D01*
X+12829701Y+2197344D01*
X+12893201Y+2260844D01*
X+12893201Y+3292959D01*
X+12700459Y+3485701D01*
X+12610656Y+3485701D01*
X+12543701Y+3552656D01*
X+12543701Y+3647344D01*
X+12610656Y+3714299D01*
X+12705344Y+3714299D01*
X+12772299Y+3647344D01*
X+14634999Y+3552605D02*
X+14634999Y+3447395D01*
X+14560605Y+3373001D01*
X+14558799Y+3373001D01*
X+14558799Y+1913959D01*
X+14435541Y+1790701D01*
X+13240459Y+1790701D01*
X+13147201Y+1883959D01*
X+13147201Y+2039156D01*
X+13083701Y+2102656D01*
X+13083701Y+2197344D01*
X+13150656Y+2264299D01*
X+13245344Y+2264299D01*
X+13312299Y+2197344D01*
X+13312299Y+2102656D01*
X+13248799Y+2039156D01*
X+13248799Y+1926041D01*
X+13282541Y+1892299D01*
X+14393459Y+1892299D01*
X+14457201Y+1956041D01*
X+14457201Y+3373001D01*
X+14455395Y+3373001D01*
X+14381001Y+3447395D01*
X+14381001Y+3552605D01*
X+14455395Y+3626999D01*
X+14560605Y+3626999D01*
X+14634999Y+3552605D01*
X+14139699Y+6857865D02*
X+14139699Y+6742135D01*
X+14070564Y+6673000D01*
X+14139699Y+6603865D01*
X+14139699Y+6488135D01*
X+14057865Y+6406301D01*
X+13942135Y+6406301D01*
X+13893799Y+6454637D01*
X+13893799Y+4085041D01*
X+14020799Y+3958041D01*
X+14020799Y+3725459D01*
X+13893799Y+3598459D01*
X+13893799Y+3573403D01*
X+13947395Y+3626999D01*
X+14052605Y+3626999D01*
X+14126999Y+3552605D01*
X+14126999Y+3447395D01*
X+14052605Y+3373001D01*
X+14050799Y+3373001D01*
X+14050799Y+2074459D01*
X+13957541Y+1981201D01*
X+13548959Y+1981201D01*
X+13494459Y+2035701D01*
X+13404656Y+2035701D01*
X+13337701Y+2102656D01*
X+13337701Y+2197344D01*
X+13404656Y+2264299D01*
X+13499344Y+2264299D01*
X+13566299Y+2197344D01*
X+13566299Y+2107541D01*
X+13591041Y+2082799D01*
X+13611558Y+2082799D01*
X+13591701Y+2102656D01*
X+13591701Y+2197344D01*
X+13658656Y+2264299D01*
X+13753344Y+2264299D01*
X+13820299Y+2197344D01*
X+13820299Y+2102656D01*
X+13800442Y+2082799D01*
X+13915459Y+2082799D01*
X+13949201Y+2116541D01*
X+13949201Y+3373001D01*
X+13947395Y+3373001D01*
X+13873001Y+3447395D01*
X+13873001Y+3449201D01*
X+13821959Y+3449201D01*
X+13792201Y+3478959D01*
X+13792201Y+3598459D01*
X+13631459Y+3759201D01*
X+8568541Y+3759201D01*
X+8534799Y+3725459D01*
X+8534799Y+3676999D01*
X+8536605Y+3676999D01*
X+8610999Y+3602605D01*
X+8610999Y+3497395D01*
X+8536605Y+3423001D01*
X+8534799Y+3423001D01*
X+8534799Y+2304959D01*
X+7717722Y+1487882D01*
X+7718999Y+1486605D01*
X+7718999Y+1381395D01*
X+7644605Y+1307001D01*
X+7539395Y+1307001D01*
X+7465001Y+1381395D01*
X+7465001Y+1486605D01*
X+7466278Y+1487882D01*
X+7417459Y+1536701D01*
X+6916541Y+1536701D01*
X+6867722Y+1487882D01*
X+6868999Y+1486605D01*
X+6868999Y+1381395D01*
X+6794605Y+1307001D01*
X+6689395Y+1307001D01*
X+6615001Y+1381395D01*
X+6615001Y+1440059D01*
X+6553201Y+1501859D01*
X+6553201Y+1536701D01*
X+6468903Y+1536701D01*
X+6518999Y+1486605D01*
X+6518999Y+1381395D01*
X+6444605Y+1307001D01*
X+6339395Y+1307001D01*
X+6338118Y+1308278D01*
X+5868041Y+838201D01*
X+5325363Y+838201D01*
X+5405699Y+757865D01*
X+5405699Y+750799D01*
X+6486959Y+750799D01*
X+7066278Y+1330118D01*
X+7065001Y+1331395D01*
X+7065001Y+1436605D01*
X+7139395Y+1510999D01*
X+7244605Y+1510999D01*
X+7318999Y+1436605D01*
X+7318999Y+1331395D01*
X+7244605Y+1257001D01*
X+7139395Y+1257001D01*
X+7138118Y+1258278D01*
X+6529041Y+649201D01*
X+5405699Y+649201D01*
X+5405699Y+642135D01*
X+5323865Y+560301D01*
X+5208135Y+560301D01*
X+5139000Y+629436D01*
X+5069865Y+560301D01*
X+4954135Y+560301D01*
X+4885000Y+629436D01*
X+4815865Y+560301D01*
X+4700135Y+560301D01*
X+4631000Y+629436D01*
X+4561865Y+560301D01*
X+4446135Y+560301D01*
X+4377000Y+629436D01*
X+4307865Y+560301D01*
X+4192135Y+560301D01*
X+4123000Y+629436D01*
X+4053865Y+560301D01*
X+3938135Y+560301D01*
X+3869000Y+629436D01*
X+3799865Y+560301D01*
X+3684135Y+560301D01*
X+3615000Y+629436D01*
X+3545865Y+560301D01*
X+3430135Y+560301D01*
X+3348301Y+642135D01*
X+3348301Y+649201D01*
X+2054959Y+649201D01*
X+1395882Y+1308278D01*
X+1394605Y+1307001D01*
X+1289395Y+1307001D01*
X+1215001Y+1381395D01*
X+1215001Y+1486605D01*
X+1289395Y+1560999D01*
X+1394605Y+1560999D01*
X+1468999Y+1486605D01*
X+1468999Y+1381395D01*
X+1467722Y+1380118D01*
X+2097041Y+750799D01*
X+3348301Y+750799D01*
X+3348301Y+757865D01*
X+3430135Y+839699D01*
X+3530461Y+839699D01*
X+3412024Y+958136D01*
X+2946024Y+958136D01*
X+2595882Y+1308278D01*
X+2594605Y+1307001D01*
X+2489395Y+1307001D01*
X+2415001Y+1381395D01*
X+2415001Y+1486605D01*
X+2465097Y+1536701D01*
X+2366541Y+1536701D01*
X+2317722Y+1487882D01*
X+2318999Y+1486605D01*
X+2318999Y+1381395D01*
X+2244605Y+1307001D01*
X+2139395Y+1307001D01*
X+2065001Y+1381395D01*
X+2065001Y+1383201D01*
X+1868999Y+1383201D01*
X+1868999Y+1381395D01*
X+1794605Y+1307001D01*
X+1689395Y+1307001D01*
X+1615001Y+1381395D01*
X+1615001Y+1486605D01*
X+1689395Y+1560999D01*
X+1794605Y+1560999D01*
X+1868999Y+1486605D01*
X+1868999Y+1484799D01*
X+2065001Y+1484799D01*
X+2065001Y+1486605D01*
X+2139395Y+1560999D01*
X+2244605Y+1560999D01*
X+2245882Y+1559722D01*
X+2324459Y+1638299D01*
X+2624541Y+1638299D01*
X+2778041Y+1484799D01*
X+2865001Y+1484799D01*
X+2865001Y+1486605D01*
X+2939395Y+1560999D01*
X+3044605Y+1560999D01*
X+3045882Y+1559722D01*
X+3124458Y+1638298D01*
X+3577042Y+1638298D01*
X+3730541Y+1484799D01*
X+3765001Y+1484799D01*
X+3765001Y+1486605D01*
X+3839395Y+1560999D01*
X+3944605Y+1560999D01*
X+3945882Y+1559722D01*
X+4024459Y+1638299D01*
X+4402541Y+1638299D01*
X+4556041Y+1484799D01*
X+4565001Y+1484799D01*
X+4565001Y+1486605D01*
X+4639395Y+1560999D01*
X+4744605Y+1560999D01*
X+4745882Y+1559722D01*
X+4824459Y+1638299D01*
X+5309541Y+1638299D01*
X+5388118Y+1559722D01*
X+5389395Y+1560999D01*
X+5494605Y+1560999D01*
X+5495882Y+1559722D01*
X+5574459Y+1638299D01*
X+6625042Y+1638299D01*
X+6654799Y+1608542D01*
X+6654799Y+1543941D01*
X+6663568Y+1535172D01*
X+6689395Y+1560999D01*
X+6794605Y+1560999D01*
X+6795882Y+1559722D01*
X+6874459Y+1638299D01*
X+7459541Y+1638299D01*
X+7538118Y+1559722D01*
X+7539395Y+1560999D01*
X+7644605Y+1560999D01*
X+7645882Y+1559722D01*
X+8433201Y+2347041D01*
X+8433201Y+3423001D01*
X+8431395Y+3423001D01*
X+8357001Y+3497395D01*
X+8357001Y+3602605D01*
X+8431395Y+3676999D01*
X+8433201Y+3676999D01*
X+8433201Y+3767541D01*
X+8496701Y+3831042D01*
X+8496701Y+4235459D01*
X+7489699Y+5242461D01*
X+7489699Y+5142135D01*
X+7420564Y+5073000D01*
X+7489699Y+5003865D01*
X+7489699Y+4888135D01*
X+7407865Y+4806301D01*
X+7292135Y+4806301D01*
X+7210301Y+4888135D01*
X+7210301Y+5003865D01*
X+7279436Y+5073000D01*
X+7210301Y+5142135D01*
X+7210301Y+5149201D01*
X+6489699Y+5149201D01*
X+6489699Y+5142135D01*
X+6420564Y+5073000D01*
X+6489699Y+5003865D01*
X+6489699Y+4888135D01*
X+6407865Y+4806301D01*
X+6292135Y+4806301D01*
X+6210301Y+4888135D01*
X+6210301Y+5003865D01*
X+6279436Y+5073000D01*
X+6210301Y+5142135D01*
X+6210301Y+5257865D01*
X+6279436Y+5327000D01*
X+6210301Y+5396135D01*
X+6210301Y+5511865D01*
X+6292135Y+5593699D01*
X+6407865Y+5593699D01*
X+6489699Y+5511865D01*
X+6489699Y+5396135D01*
X+6420564Y+5327000D01*
X+6489699Y+5257865D01*
X+6489699Y+5250799D01*
X+7210301Y+5250799D01*
X+7210301Y+5257865D01*
X+7279436Y+5327000D01*
X+7210301Y+5396135D01*
X+7210301Y+5511865D01*
X+7292135Y+5593699D01*
X+7407865Y+5593699D01*
X+7489699Y+5511865D01*
X+7489699Y+5396135D01*
X+7484702Y+5391138D01*
X+8598299Y+4277541D01*
X+8598299Y+3860799D01*
X+13673541Y+3860799D01*
X+13843000Y+3691340D01*
X+13919201Y+3767541D01*
X+13919201Y+3915959D01*
X+13792201Y+4042959D01*
X+13792201Y+6664041D01*
X+13865298Y+6737138D01*
X+13860301Y+6742135D01*
X+13860301Y+6857865D01*
X+13942135Y+6939699D01*
X+14057865Y+6939699D01*
X+14139699Y+6857865D01*
X+2276999Y+9252605D02*
X+2276999Y+9250799D01*
X+3251541Y+9250799D01*
X+3400799Y+9101541D01*
X+3400799Y+7901699D01*
X+3407865Y+7901699D01*
X+3489699Y+7819865D01*
X+3489699Y+7704135D01*
X+3420564Y+7635000D01*
X+3489699Y+7565865D01*
X+3489699Y+7450135D01*
X+3420564Y+7381000D01*
X+3489699Y+7311865D01*
X+3489699Y+7196135D01*
X+3420564Y+7127000D01*
X+3489699Y+7057865D01*
X+3489699Y+6942135D01*
X+3420564Y+6873000D01*
X+3489699Y+6803865D01*
X+3489699Y+6688135D01*
X+3420564Y+6619000D01*
X+3489699Y+6549865D01*
X+3489699Y+6434135D01*
X+3420564Y+6365000D01*
X+3489699Y+6295865D01*
X+3489699Y+6180135D01*
X+3420564Y+6111000D01*
X+3489699Y+6041865D01*
X+3489699Y+5926135D01*
X+3407865Y+5844301D01*
X+3400799Y+5844301D01*
X+3400798Y+5128958D01*
X+2275722Y+4003882D01*
X+2276999Y+4002605D01*
X+2276999Y+3897395D01*
X+2202605Y+3823001D01*
X+2097395Y+3823001D01*
X+2023001Y+3897395D01*
X+2023001Y+4002605D01*
X+2097395Y+4076999D01*
X+2202605Y+4076999D01*
X+2203882Y+4075722D01*
X+3299202Y+5171042D01*
X+3299201Y+5844301D01*
X+3292135Y+5844301D01*
X+3210301Y+5926135D01*
X+3210301Y+6026461D01*
X+2672151Y+5488311D01*
X+2672151Y+5150311D01*
X+2275722Y+4753882D01*
X+2276999Y+4752605D01*
X+2276999Y+4647395D01*
X+2202605Y+4573001D01*
X+2097395Y+4573001D01*
X+2023001Y+4647395D01*
X+2023001Y+4752605D01*
X+2097395Y+4826999D01*
X+2202605Y+4826999D01*
X+2203882Y+4825722D01*
X+2570553Y+5192393D01*
X+2570553Y+5530393D01*
X+3215298Y+6175138D01*
X+3210301Y+6180135D01*
X+3210301Y+6295865D01*
X+3279436Y+6365000D01*
X+3210301Y+6434135D01*
X+3210301Y+6441201D01*
X+2561041Y+6441201D01*
X+2507969Y+6388129D01*
X+2507969Y+5686129D01*
X+2325722Y+5503882D01*
X+2326999Y+5502605D01*
X+2326999Y+5397395D01*
X+2252605Y+5323001D01*
X+2147395Y+5323001D01*
X+2073001Y+5397395D01*
X+2073001Y+5502605D01*
X+2147395Y+5576999D01*
X+2252605Y+5576999D01*
X+2253882Y+5575722D01*
X+2406371Y+5728211D01*
X+2406371Y+6430211D01*
X+2518959Y+6542799D01*
X+3210301Y+6542799D01*
X+3210301Y+6549865D01*
X+3279436Y+6619000D01*
X+3210301Y+6688135D01*
X+3210301Y+6695201D01*
X+2307041Y+6695201D01*
X+2250799Y+6638959D01*
X+2250799Y+6326999D01*
X+2252605Y+6326999D01*
X+2326999Y+6252605D01*
X+2326999Y+6147395D01*
X+2252605Y+6073001D01*
X+2147395Y+6073001D01*
X+2073001Y+6147395D01*
X+2073001Y+6252605D01*
X+2147395Y+6326999D01*
X+2149201Y+6326999D01*
X+2149201Y+6681041D01*
X+2264959Y+6796799D01*
X+3210301Y+6796799D01*
X+3210301Y+6803865D01*
X+3279436Y+6873000D01*
X+3210301Y+6942135D01*
X+3210301Y+6949201D01*
X+2276999Y+6949201D01*
X+2276999Y+6947395D01*
X+2202605Y+6873001D01*
X+2097395Y+6873001D01*
X+2023001Y+6947395D01*
X+2023001Y+7052605D01*
X+2097395Y+7126999D01*
X+2202605Y+7126999D01*
X+2276999Y+7052605D01*
X+2276999Y+7050799D01*
X+3210301Y+7050799D01*
X+3210301Y+7057865D01*
X+3279436Y+7127000D01*
X+3210301Y+7196135D01*
X+3210301Y+7203201D01*
X+2624959Y+7203201D01*
X+2203882Y+7624278D01*
X+2202605Y+7623001D01*
X+2097395Y+7623001D01*
X+2023001Y+7697395D01*
X+2023001Y+7802605D01*
X+2097395Y+7876999D01*
X+2202605Y+7876999D01*
X+2276999Y+7802605D01*
X+2276999Y+7697395D01*
X+2275722Y+7696118D01*
X+2667041Y+7304799D01*
X+3210301Y+7304799D01*
X+3210301Y+7311865D01*
X+3279436Y+7381000D01*
X+3210301Y+7450135D01*
X+3210301Y+7565865D01*
X+3215298Y+7570862D01*
X+2336959Y+8449201D01*
X+2226999Y+8449201D01*
X+2226999Y+8447395D01*
X+2152605Y+8373001D01*
X+2047395Y+8373001D01*
X+1973001Y+8447395D01*
X+1973001Y+8552605D01*
X+2047395Y+8626999D01*
X+2152605Y+8626999D01*
X+2226999Y+8552605D01*
X+2226999Y+8550799D01*
X+2379041Y+8550799D01*
X+3210301Y+7719539D01*
X+3210301Y+7819865D01*
X+3292135Y+7901699D01*
X+3299201Y+7901699D01*
X+3299201Y+9059459D01*
X+3209459Y+9149201D01*
X+2276999Y+9149201D01*
X+2276999Y+9147395D01*
X+2202605Y+9073001D01*
X+2097395Y+9073001D01*
X+2023001Y+9147395D01*
X+2023001Y+9252605D01*
X+2097395Y+9326999D01*
X+2202605Y+9326999D01*
X+2276999Y+9252605D01*
X+1115001Y+3447395D02*
X+1115001Y+3552605D01*
X+1189395Y+3626999D01*
X+1294605Y+3626999D01*
X+1368999Y+3552605D01*
X+1368999Y+3447395D01*
X+1294605Y+3373001D01*
X+1189395Y+3373001D01*
X+1115001Y+3447395D01*
X+1623001Y+3447395D02*
X+1623001Y+3552605D01*
X+1697395Y+3626999D01*
X+1802605Y+3626999D01*
X+1876999Y+3552605D01*
X+1876999Y+3447395D01*
X+1802605Y+3373001D01*
X+1697395Y+3373001D01*
X+1623001Y+3447395D01*
X+1115001Y+2685395D02*
X+1115001Y+2790605D01*
X+1189395Y+2864999D01*
X+1294605Y+2864999D01*
X+1368999Y+2790605D01*
X+1368999Y+2685395D01*
X+1294605Y+2611001D01*
X+1189395Y+2611001D01*
X+1115001Y+2685395D01*
X+1876999Y+2790605D02*
X+1876999Y+2685395D01*
X+1802605Y+2611001D01*
X+1792798Y+2611001D01*
X+1792799Y+2576999D01*
X+1794605Y+2576999D01*
X+1868999Y+2502605D01*
X+1868999Y+2397395D01*
X+1794605Y+2323001D01*
X+1689395Y+2323001D01*
X+1615001Y+2397395D01*
X+1615001Y+2399201D01*
X+1468999Y+2399201D01*
X+1468999Y+2397395D01*
X+1394605Y+2323001D01*
X+1289395Y+2323001D01*
X+1215001Y+2397395D01*
X+1215001Y+2502605D01*
X+1289395Y+2576999D01*
X+1394605Y+2576999D01*
X+1468999Y+2502605D01*
X+1468999Y+2500799D01*
X+1615001Y+2500799D01*
X+1615001Y+2502605D01*
X+1689395Y+2576999D01*
X+1691201Y+2576999D01*
X+1691202Y+2617194D01*
X+1623001Y+2685395D01*
X+1623001Y+2790605D01*
X+1697395Y+2864999D01*
X+1802605Y+2864999D01*
X+1876999Y+2790605D01*
X+1907001Y+3459395D02*
X+1907001Y+3564605D01*
X+1981395Y+3638999D01*
X+2086605Y+3638999D01*
X+2160999Y+3564605D01*
X+2160999Y+3459395D01*
X+2086605Y+3385001D01*
X+1981395Y+3385001D01*
X+1907001Y+3459395D01*
X+2415001Y+3459395D02*
X+2415001Y+3564605D01*
X+2489395Y+3638999D01*
X+2594605Y+3638999D01*
X+2668999Y+3564605D01*
X+2668999Y+3459395D01*
X+2594605Y+3385001D01*
X+2489395Y+3385001D01*
X+2415001Y+3459395D01*
X+1907001Y+2697395D02*
X+1907001Y+2802605D01*
X+1981395Y+2876999D01*
X+2086605Y+2876999D01*
X+2160999Y+2802605D01*
X+2160999Y+2697395D01*
X+2086605Y+2623001D01*
X+1981395Y+2623001D01*
X+1907001Y+2697395D01*
X+2668999Y+2802605D02*
X+2668999Y+2697395D01*
X+2594605Y+2623001D01*
X+2592799Y+2623001D01*
X+2592799Y+2576999D01*
X+2594605Y+2576999D01*
X+2668999Y+2502605D01*
X+2668999Y+2397395D01*
X+2594605Y+2323001D01*
X+2489395Y+2323001D01*
X+2415001Y+2397395D01*
X+2415001Y+2399201D01*
X+2318999Y+2399201D01*
X+2318999Y+2397395D01*
X+2244605Y+2323001D01*
X+2139395Y+2323001D01*
X+2065001Y+2397395D01*
X+2065001Y+2502605D01*
X+2139395Y+2576999D01*
X+2244605Y+2576999D01*
X+2318999Y+2502605D01*
X+2318999Y+2500799D01*
X+2415001Y+2500799D01*
X+2415001Y+2502605D01*
X+2489395Y+2576999D01*
X+2491201Y+2576999D01*
X+2491201Y+2623001D01*
X+2489395Y+2623001D01*
X+2415001Y+2697395D01*
X+2415001Y+2802605D01*
X+2489395Y+2876999D01*
X+2594605Y+2876999D01*
X+2668999Y+2802605D01*
X+2715001Y+3447395D02*
X+2715001Y+3552605D01*
X+2789395Y+3626999D01*
X+2894605Y+3626999D01*
X+2968999Y+3552605D01*
X+2968999Y+3447395D01*
X+2894605Y+3373001D01*
X+2789395Y+3373001D01*
X+2715001Y+3447395D01*
X+3223001Y+3447395D02*
X+3223001Y+3552605D01*
X+3297395Y+3626999D01*
X+3402605Y+3626999D01*
X+3476999Y+3552605D01*
X+3476999Y+3447395D01*
X+3402605Y+3373001D01*
X+3297395Y+3373001D01*
X+3223001Y+3447395D01*
X+2715001Y+2685395D02*
X+2715001Y+2790605D01*
X+2789395Y+2864999D01*
X+2894605Y+2864999D01*
X+2968999Y+2790605D01*
X+2968999Y+2685395D01*
X+2894605Y+2611001D01*
X+2789395Y+2611001D01*
X+2715001Y+2685395D01*
X+3476999Y+2790605D02*
X+3476999Y+2685395D01*
X+3402605Y+2611001D01*
X+3392798Y+2611001D01*
X+3392799Y+2576999D01*
X+3394605Y+2576999D01*
X+3468999Y+2502605D01*
X+3468999Y+2397395D01*
X+3394605Y+2323001D01*
X+3289395Y+2323001D01*
X+3215001Y+2397395D01*
X+3215001Y+2399201D01*
X+3118999Y+2399201D01*
X+3118999Y+2397395D01*
X+3044605Y+2323001D01*
X+2939395Y+2323001D01*
X+2865001Y+2397395D01*
X+2865001Y+2502605D01*
X+2939395Y+2576999D01*
X+3044605Y+2576999D01*
X+3118999Y+2502605D01*
X+3118999Y+2500799D01*
X+3215001Y+2500799D01*
X+3215001Y+2502605D01*
X+3289395Y+2576999D01*
X+3291201Y+2576999D01*
X+3291202Y+2617194D01*
X+3223001Y+2685395D01*
X+3223001Y+2790605D01*
X+3297395Y+2864999D01*
X+3402605Y+2864999D01*
X+3476999Y+2790605D01*
X+3615001Y+3447395D02*
X+3615001Y+3552605D01*
X+3689395Y+3626999D01*
X+3794605Y+3626999D01*
X+3868999Y+3552605D01*
X+3868999Y+3447395D01*
X+3794605Y+3373001D01*
X+3689395Y+3373001D01*
X+3615001Y+3447395D01*
X+4123001Y+3447395D02*
X+4123001Y+3552605D01*
X+4197395Y+3626999D01*
X+4302605Y+3626999D01*
X+4376999Y+3552605D01*
X+4376999Y+3447395D01*
X+4302605Y+3373001D01*
X+4197395Y+3373001D01*
X+4123001Y+3447395D01*
X+3615001Y+2685395D02*
X+3615001Y+2790605D01*
X+3689395Y+2864999D01*
X+3794605Y+2864999D01*
X+3868999Y+2790605D01*
X+3868999Y+2685395D01*
X+3794605Y+2611001D01*
X+3689395Y+2611001D01*
X+3615001Y+2685395D01*
X+4376999Y+2790605D02*
X+4376999Y+2685395D01*
X+4302605Y+2611001D01*
X+4292798Y+2611001D01*
X+4292799Y+2576999D01*
X+4294605Y+2576999D01*
X+4368999Y+2502605D01*
X+4368999Y+2397395D01*
X+4294605Y+2323001D01*
X+4189395Y+2323001D01*
X+4115001Y+2397395D01*
X+4115001Y+2399201D01*
X+4018999Y+2399201D01*
X+4018999Y+2397395D01*
X+3944605Y+2323001D01*
X+3839395Y+2323001D01*
X+3765001Y+2397395D01*
X+3765001Y+2502605D01*
X+3839395Y+2576999D01*
X+3944605Y+2576999D01*
X+4018999Y+2502605D01*
X+4018999Y+2500799D01*
X+4115001Y+2500799D01*
X+4115001Y+2502605D01*
X+4189395Y+2576999D01*
X+4191201Y+2576999D01*
X+4191202Y+2617194D01*
X+4123001Y+2685395D01*
X+4123001Y+2790605D01*
X+4197395Y+2864999D01*
X+4302605Y+2864999D01*
X+4376999Y+2790605D01*
X+4415001Y+3447395D02*
X+4415001Y+3552605D01*
X+4489395Y+3626999D01*
X+4594605Y+3626999D01*
X+4668999Y+3552605D01*
X+4668999Y+3447395D01*
X+4594605Y+3373001D01*
X+4489395Y+3373001D01*
X+4415001Y+3447395D01*
X+4923001Y+3447395D02*
X+4923001Y+3552605D01*
X+4997395Y+3626999D01*
X+5102605Y+3626999D01*
X+5176999Y+3552605D01*
X+5176999Y+3447395D01*
X+5102605Y+3373001D01*
X+4997395Y+3373001D01*
X+4923001Y+3447395D01*
X+4415001Y+2685395D02*
X+4415001Y+2790605D01*
X+4489395Y+2864999D01*
X+4594605Y+2864999D01*
X+4668999Y+2790605D01*
X+4668999Y+2685395D01*
X+4594605Y+2611001D01*
X+4489395Y+2611001D01*
X+4415001Y+2685395D01*
X+5176999Y+2790605D02*
X+5176999Y+2685395D01*
X+5102605Y+2611001D01*
X+5092798Y+2611001D01*
X+5092799Y+2576999D01*
X+5094605Y+2576999D01*
X+5168999Y+2502605D01*
X+5168999Y+2397395D01*
X+5094605Y+2323001D01*
X+4989395Y+2323001D01*
X+4915001Y+2397395D01*
X+4915001Y+2399201D01*
X+4818999Y+2399201D01*
X+4818999Y+2397395D01*
X+4744605Y+2323001D01*
X+4639395Y+2323001D01*
X+4565001Y+2397395D01*
X+4565001Y+2502605D01*
X+4639395Y+2576999D01*
X+4744605Y+2576999D01*
X+4818999Y+2502605D01*
X+4818999Y+2500799D01*
X+4915001Y+2500799D01*
X+4915001Y+2502605D01*
X+4989395Y+2576999D01*
X+4991201Y+2576999D01*
X+4991202Y+2617194D01*
X+4923001Y+2685395D01*
X+4923001Y+2790605D01*
X+4997395Y+2864999D01*
X+5102605Y+2864999D01*
X+5176999Y+2790605D01*
X+5265001Y+3447395D02*
X+5265001Y+3552605D01*
X+5339395Y+3626999D01*
X+5444605Y+3626999D01*
X+5518999Y+3552605D01*
X+5518999Y+3447395D01*
X+5444605Y+3373001D01*
X+5339395Y+3373001D01*
X+5265001Y+3447395D01*
X+5773001Y+3447395D02*
X+5773001Y+3552605D01*
X+5847395Y+3626999D01*
X+5952605Y+3626999D01*
X+6026999Y+3552605D01*
X+6026999Y+3447395D01*
X+5952605Y+3373001D01*
X+5847395Y+3373001D01*
X+5773001Y+3447395D01*
X+5265001Y+2685395D02*
X+5265001Y+2790605D01*
X+5339395Y+2864999D01*
X+5444605Y+2864999D01*
X+5518999Y+2790605D01*
X+5518999Y+2685395D01*
X+5444605Y+2611001D01*
X+5339395Y+2611001D01*
X+5265001Y+2685395D01*
X+6026999Y+2790605D02*
X+6026999Y+2685395D01*
X+5952605Y+2611001D01*
X+5942798Y+2611001D01*
X+5942799Y+2576999D01*
X+5944605Y+2576999D01*
X+6018999Y+2502605D01*
X+6018999Y+2397395D01*
X+5944605Y+2323001D01*
X+5839395Y+2323001D01*
X+5765001Y+2397395D01*
X+5765001Y+2399201D01*
X+5568999Y+2399201D01*
X+5568999Y+2397395D01*
X+5494605Y+2323001D01*
X+5389395Y+2323001D01*
X+5315001Y+2397395D01*
X+5315001Y+2502605D01*
X+5389395Y+2576999D01*
X+5494605Y+2576999D01*
X+5568999Y+2502605D01*
X+5568999Y+2500799D01*
X+5765001Y+2500799D01*
X+5765001Y+2502605D01*
X+5839395Y+2576999D01*
X+5841201Y+2576999D01*
X+5841202Y+2617194D01*
X+5773001Y+2685395D01*
X+5773001Y+2790605D01*
X+5847395Y+2864999D01*
X+5952605Y+2864999D01*
X+6026999Y+2790605D01*
X+6115001Y+3447395D02*
X+6115001Y+3552605D01*
X+6189395Y+3626999D01*
X+6294605Y+3626999D01*
X+6368999Y+3552605D01*
X+6368999Y+3447395D01*
X+6294605Y+3373001D01*
X+6189395Y+3373001D01*
X+6115001Y+3447395D01*
X+6623001Y+3447395D02*
X+6623001Y+3552605D01*
X+6697395Y+3626999D01*
X+6802605Y+3626999D01*
X+6876999Y+3552605D01*
X+6876999Y+3447395D01*
X+6802605Y+3373001D01*
X+6697395Y+3373001D01*
X+6623001Y+3447395D01*
X+6115001Y+2685395D02*
X+6115001Y+2790605D01*
X+6189395Y+2864999D01*
X+6294605Y+2864999D01*
X+6368999Y+2790605D01*
X+6368999Y+2685395D01*
X+6294605Y+2611001D01*
X+6189395Y+2611001D01*
X+6115001Y+2685395D01*
X+6876999Y+2790605D02*
X+6876999Y+2685395D01*
X+6802605Y+2611001D01*
X+6792798Y+2611001D01*
X+6792799Y+2576999D01*
X+6794605Y+2576999D01*
X+6868999Y+2502605D01*
X+6868999Y+2397395D01*
X+6794605Y+2323001D01*
X+6689395Y+2323001D01*
X+6615001Y+2397395D01*
X+6615001Y+2399201D01*
X+6518999Y+2399201D01*
X+6518999Y+2397395D01*
X+6444605Y+2323001D01*
X+6339395Y+2323001D01*
X+6265001Y+2397395D01*
X+6265001Y+2502605D01*
X+6339395Y+2576999D01*
X+6444605Y+2576999D01*
X+6518999Y+2502605D01*
X+6518999Y+2500799D01*
X+6615001Y+2500799D01*
X+6615001Y+2502605D01*
X+6689395Y+2576999D01*
X+6691201Y+2576999D01*
X+6691202Y+2617194D01*
X+6623001Y+2685395D01*
X+6623001Y+2790605D01*
X+6697395Y+2864999D01*
X+6802605Y+2864999D01*
X+6876999Y+2790605D01*
X+6915001Y+3447395D02*
X+6915001Y+3552605D01*
X+6989395Y+3626999D01*
X+7094605Y+3626999D01*
X+7168999Y+3552605D01*
X+7168999Y+3447395D01*
X+7094605Y+3373001D01*
X+6989395Y+3373001D01*
X+6915001Y+3447395D01*
X+7423001Y+3447395D02*
X+7423001Y+3552605D01*
X+7497395Y+3626999D01*
X+7602605Y+3626999D01*
X+7676999Y+3552605D01*
X+7676999Y+3447395D01*
X+7602605Y+3373001D01*
X+7497395Y+3373001D01*
X+7423001Y+3447395D01*
X+6915001Y+2685395D02*
X+6915001Y+2790605D01*
X+6989395Y+2864999D01*
X+7094605Y+2864999D01*
X+7168999Y+2790605D01*
X+7168999Y+2685395D01*
X+7094605Y+2611001D01*
X+6989395Y+2611001D01*
X+6915001Y+2685395D01*
X+7676999Y+2790605D02*
X+7676999Y+2685395D01*
X+7629472Y+2637868D01*
X+7642799Y+2624541D01*
X+7642799Y+2576999D01*
X+7644605Y+2576999D01*
X+7718999Y+2502605D01*
X+7718999Y+2397395D01*
X+7644605Y+2323001D01*
X+7539395Y+2323001D01*
X+7465001Y+2397395D01*
X+7465001Y+2399201D01*
X+7450541Y+2399201D01*
X+7400541Y+2349201D01*
X+7318999Y+2349201D01*
X+7318999Y+2347395D01*
X+7244605Y+2273001D01*
X+7139395Y+2273001D01*
X+7065001Y+2347395D01*
X+7065001Y+2452605D01*
X+7139395Y+2526999D01*
X+7244605Y+2526999D01*
X+7318999Y+2452605D01*
X+7318999Y+2450799D01*
X+7358459Y+2450799D01*
X+7408459Y+2500799D01*
X+7465001Y+2500799D01*
X+7465001Y+2502605D01*
X+7522028Y+2559632D01*
X+7499201Y+2582459D01*
X+7499201Y+2611001D01*
X+7497395Y+2611001D01*
X+7423001Y+2685395D01*
X+7423001Y+2790605D01*
X+7497395Y+2864999D01*
X+7602605Y+2864999D01*
X+7676999Y+2790605D01*
X+8865001Y+3497395D02*
X+8865001Y+3602605D01*
X+8939395Y+3676999D01*
X+9044605Y+3676999D01*
X+9118999Y+3602605D01*
X+9118999Y+3497395D01*
X+9044605Y+3423001D01*
X+8939395Y+3423001D01*
X+8865001Y+3497395D01*
X+13365001Y+3447395D02*
X+13365001Y+3552605D01*
X+13439395Y+3626999D01*
X+13544605Y+3626999D01*
X+13618999Y+3552605D01*
X+13618999Y+3447395D01*
X+13544605Y+3373001D01*
X+13439395Y+3373001D01*
X+13365001Y+3447395D01*
X+872461Y+9389699D02*
X+613539Y+9389699D01*
X+634541Y+9410701D01*
X+851459Y+9410701D01*
X+872461Y+9389699D01*
X+817959Y+8305799D02*
X+634541Y+8305799D01*
X+600799Y+8339541D01*
X+600799Y+8360301D01*
X+872461Y+8360301D01*
X+817959Y+8305799D01*
X+922461Y+7889699D02*
X+600799Y+7889699D01*
X+600799Y+7916459D01*
X+634541Y+7950201D01*
X+861959Y+7950201D01*
X+922461Y+7889699D01*
X+907459Y+6845299D02*
X+634541Y+6845299D01*
X+619539Y+6860301D01*
X+922461Y+6860301D01*
X+907459Y+6845299D01*
X+857959Y+4495799D02*
X+634541Y+4495799D01*
X+600799Y+4529541D01*
X+600799Y+4560301D01*
X+922461Y+4560301D01*
X+857959Y+4495799D01*
X+922461Y+4089699D02*
X+600799Y+4089699D01*
X+600799Y+4106459D01*
X+634542Y+4140202D01*
X+871958Y+4140202D01*
X+922461Y+4089699D01*
X+943699Y+9250000D02*
X+804000Y+9250000D01*
X+804000Y+9110301D02*
X+804000Y+9250000D01*
X+804000Y+9389699D02*
X+804000Y+9250000D01*
X+943699Y+8500000D02*
X+804000Y+8500000D01*
X+804000Y+8360301D02*
X+804000Y+8500000D01*
X+804000Y+8639699D02*
X+804000Y+8500000D01*
X+943699Y+7750000D02*
X+804000Y+7750000D01*
X+804000Y+7610301D02*
X+804000Y+7750000D01*
X+804000Y+7889699D02*
X+804000Y+7750000D01*
X+943699Y+7000000D02*
X+804000Y+7000000D01*
X+804000Y+6860301D02*
X+804000Y+7000000D01*
X+804000Y+7139699D02*
X+804000Y+7000000D01*
X+947699Y+6200000D02*
X+808000Y+6200000D01*
X+808000Y+6060301D02*
X+808000Y+6200000D01*
X+808000Y+6339699D02*
X+808000Y+6200000D01*
X+943699Y+5450000D02*
X+804000Y+5450000D01*
X+804000Y+5310301D02*
X+804000Y+5450000D01*
X+804000Y+5589699D02*
X+804000Y+5450000D01*
X+943699Y+4700000D02*
X+804000Y+4700000D01*
X+804000Y+4560301D02*
X+804000Y+4700000D01*
X+804000Y+4839699D02*
X+804000Y+4700000D01*
X+943699Y+3950000D02*
X+804000Y+3950000D01*
X+804000Y+3810301D02*
X+804000Y+3950000D01*
X+804000Y+4089699D02*
X+804000Y+3950000D01*
X+9781701Y+2150000D02*
X+9896000Y+2150000D01*
X+10010299Y+2150000D02*
X+9896000Y+2150000D01*
X+9896000Y+2035701D02*
X+9896000Y+2150000D01*
X+9896000Y+2264299D02*
X+9896000Y+2150000D01*
X+12575701Y+2150000D02*
X+12690000Y+2150000D01*
X+12804299Y+2150000D02*
X+12690000Y+2150000D01*
X+12690000Y+2035701D02*
X+12690000Y+2150000D01*
X+12690000Y+2264299D02*
X+12690000Y+2150000D01*
X+13591701Y+2150000D02*
X+13706000Y+2150000D01*
X+13820299Y+2150000D02*
X+13706000Y+2150000D01*
X+13706000Y+2264299D02*
X+13706000Y+2150000D01*
X+14000000Y+6406301D02*
X+14000000Y+6546000D01*
X+14139699Y+6546000D02*
X+14000000Y+6546000D01*
X+1115001Y+3500000D02*
X+1242000Y+3500000D01*
X+1368999Y+3500000D02*
X+1242000Y+3500000D01*
X+1242000Y+3373001D02*
X+1242000Y+3500000D01*
X+1242000Y+3626999D02*
X+1242000Y+3500000D01*
X+1907001Y+3512000D02*
X+2034000Y+3512000D01*
X+2160999Y+3512000D02*
X+2034000Y+3512000D01*
X+2034000Y+3385001D02*
X+2034000Y+3512000D01*
X+2034000Y+3638999D02*
X+2034000Y+3512000D01*
X+2715001Y+3500000D02*
X+2842000Y+3500000D01*
X+2968999Y+3500000D02*
X+2842000Y+3500000D01*
X+2842000Y+3373001D02*
X+2842000Y+3500000D01*
X+2842000Y+3626999D02*
X+2842000Y+3500000D01*
X+3615001Y+3500000D02*
X+3742000Y+3500000D01*
X+3868999Y+3500000D02*
X+3742000Y+3500000D01*
X+3742000Y+3373001D02*
X+3742000Y+3500000D01*
X+3742000Y+3626999D02*
X+3742000Y+3500000D01*
X+4415001Y+3500000D02*
X+4542000Y+3500000D01*
X+4668999Y+3500000D02*
X+4542000Y+3500000D01*
X+4542000Y+3373001D02*
X+4542000Y+3500000D01*
X+4542000Y+3626999D02*
X+4542000Y+3500000D01*
X+5265001Y+3500000D02*
X+5392000Y+3500000D01*
X+5518999Y+3500000D02*
X+5392000Y+3500000D01*
X+5392000Y+3373001D02*
X+5392000Y+3500000D01*
X+5392000Y+3626999D02*
X+5392000Y+3500000D01*
X+6115001Y+3500000D02*
X+6242000Y+3500000D01*
X+6368999Y+3500000D02*
X+6242000Y+3500000D01*
X+6242000Y+3373001D02*
X+6242000Y+3500000D01*
X+6242000Y+3626999D02*
X+6242000Y+3500000D01*
X+6915001Y+3500000D02*
X+7042000Y+3500000D01*
X+7168999Y+3500000D02*
X+7042000Y+3500000D01*
X+7042000Y+3373001D02*
X+7042000Y+3500000D01*
X+7042000Y+3626999D02*
X+7042000Y+3500000D01*
X+8865001Y+3550000D02*
X+8992000Y+3550000D01*
X+9118999Y+3550000D02*
X+8992000Y+3550000D01*
X+8992000Y+3423001D02*
X+8992000Y+3550000D01*
X+8992000Y+3676999D02*
X+8992000Y+3550000D01*
X+13365001Y+3500000D02*
X+13492000Y+3500000D01*
X+13618999Y+3500000D02*
X+13492000Y+3500000D01*
X+13492000Y+3373001D02*
X+13492000Y+3500000D01*
X+13492000Y+3626999D02*
X+13492000Y+3500000D01*
X+7350000Y+4806301D02*
X+7350000Y+4946000D01*
X+7210301Y+4946000D02*
X+7350000Y+4946000D01*
X+7489699Y+4946000D02*
X+7350000Y+4946000D01*
D11*
X+550000Y+9250000D03*
X+804000Y+9250000D03*
X+550000Y+8500000D03*
X+804000Y+8500000D03*
X+550000Y+7750000D03*
X+804000Y+7750000D03*
X+550000Y+7000000D03*
X+804000Y+7000000D03*
X+554000Y+6200000D03*
X+808000Y+6200000D03*
X+550000Y+5450000D03*
X+804000Y+5450000D03*
X+550000Y+4700000D03*
X+804000Y+4700000D03*
X+550000Y+3950000D03*
X+804000Y+3950000D03*
D12*
X+10021300Y+6651400D03*
X+10275300Y+6651400D03*
X+10529300Y+6651400D03*
X+10783300Y+6651400D03*
X+11037300Y+6651400D03*
X+11291300Y+6651400D03*
X+10034000Y+8150000D03*
X+10288000Y+8150000D03*
X+10542000Y+8150000D03*
X+10796000Y+8150000D03*
X+11050000Y+8150000D03*
X+11304000Y+8150000D03*
D13*
X+7150000Y+8500000D03*
X+7150000Y+8246000D03*
X+7150000Y+7992000D03*
X+7150000Y+7738000D03*
X+7150000Y+7484000D03*
X+7150000Y+7230000D03*
X+7150000Y+6976000D03*
X+7150000Y+6722000D03*
X+11600000Y+9050000D03*
X+11854000Y+9050000D03*
X+12108000Y+9050000D03*
X+12362000Y+9050000D03*
X+6058000Y+7800000D03*
X+5804000Y+7800000D03*
X+5550000Y+7800000D03*
X+5296000Y+7800000D03*
X+5042000Y+7800000D03*
X+4788000Y+7800000D03*
X+4534000Y+7800000D03*
X+4280000Y+7800000D03*
X+4296000Y+8700000D03*
X+4550000Y+8700000D03*
X+4804000Y+8700000D03*
X+5058000Y+8700000D03*
X+5312000Y+8700000D03*
X+5566000Y+8700000D03*
X+5820000Y+8700000D03*
X+6074000Y+8700000D03*
D14*
X+9896000Y+2150000D03*
D15*
X+9896000Y+2150000D03*
D14*
X+10150000Y+2150000D03*
D15*
X+10150000Y+2150000D03*
D14*
X+10404000Y+2150000D03*
D15*
X+10404000Y+2150000D03*
D14*
X+10658000Y+2150000D03*
D15*
X+10658000Y+2150000D03*
D14*
X+10912000Y+2150000D03*
D15*
X+10912000Y+2150000D03*
D14*
X+11166000Y+2150000D03*
D15*
X+11166000Y+2150000D03*
D14*
X+11420000Y+2150000D03*
D15*
X+11420000Y+2150000D03*
D14*
X+11674000Y+2150000D03*
D15*
X+11674000Y+2150000D03*
D14*
X+11928000Y+2150000D03*
D15*
X+11928000Y+2150000D03*
D14*
X+12182000Y+2150000D03*
D15*
X+12182000Y+2150000D03*
D14*
X+12436000Y+2150000D03*
D15*
X+12436000Y+2150000D03*
D14*
X+12690000Y+2150000D03*
D15*
X+12690000Y+2150000D03*
D14*
X+12944000Y+2150000D03*
D15*
X+12944000Y+2150000D03*
D14*
X+13198000Y+2150000D03*
D15*
X+13198000Y+2150000D03*
D14*
X+13452000Y+2150000D03*
D15*
X+13452000Y+2150000D03*
D14*
X+13706000Y+2150000D03*
D15*
X+13706000Y+2150000D03*
D14*
X+12658000Y+3600000D03*
D15*
X+12658000Y+3600000D03*
D14*
X+12404000Y+3600000D03*
D15*
X+12404000Y+3600000D03*
D14*
X+12150000Y+3600000D03*
D15*
X+12150000Y+3600000D03*
D14*
X+11896000Y+3600000D03*
D15*
X+11896000Y+3600000D03*
D14*
X+11642000Y+3600000D03*
D15*
X+11642000Y+3600000D03*
D14*
X+11388000Y+3600000D03*
D15*
X+11388000Y+3600000D03*
D14*
X+11134000Y+3600000D03*
D15*
X+11134000Y+3600000D03*
D14*
X+10880000Y+3600000D03*
D15*
X+10880000Y+3600000D03*
D14*
X+10626000Y+3600000D03*
D15*
X+10626000Y+3600000D03*
D14*
X+10372000Y+3600000D03*
D15*
X+10372000Y+3600000D03*
D13*
X+14000000Y+6800000D03*
X+14000000Y+6546000D03*
X+6350000Y+4946000D03*
X+6350000Y+5200000D03*
X+6350000Y+5454000D03*
X+3350000Y+7762000D03*
X+3350000Y+7508000D03*
X+3350000Y+7254000D03*
X+3350000Y+7000000D03*
X+3350000Y+6746000D03*
X+3350000Y+6492000D03*
X+3350000Y+6238000D03*
X+3350000Y+5984000D03*
X+5266000Y+700000D03*
X+5012000Y+700000D03*
X+4758000Y+700000D03*
X+4504000Y+700000D03*
X+4250000Y+700000D03*
X+3996000Y+700000D03*
X+3742000Y+700000D03*
X+3488000Y+700000D03*
D12*
X+1242000Y+3500000D03*
X+1750000Y+3500000D03*
X+1242000Y+2738000D03*
X+1750000Y+2738000D03*
X+2034000Y+3512000D03*
X+2542000Y+3512000D03*
X+2034000Y+2750000D03*
X+2542000Y+2750000D03*
X+2842000Y+3500000D03*
X+3350000Y+3500000D03*
X+2842000Y+2738000D03*
X+3350000Y+2738000D03*
X+3742000Y+3500000D03*
X+4250000Y+3500000D03*
X+3742000Y+2738000D03*
X+4250000Y+2738000D03*
X+4542000Y+3500000D03*
X+5050000Y+3500000D03*
X+4542000Y+2738000D03*
X+5050000Y+2738000D03*
X+5392000Y+3500000D03*
X+5900000Y+3500000D03*
X+5392000Y+2738000D03*
X+5900000Y+2738000D03*
X+6242000Y+3500000D03*
X+6750000Y+3500000D03*
X+6242000Y+2738000D03*
X+6750000Y+2738000D03*
X+7042000Y+3500000D03*
X+7550000Y+3500000D03*
X+7042000Y+2738000D03*
X+7550000Y+2738000D03*
X+2150000Y+3950000D03*
X+1134000Y+3950000D03*
X+2150000Y+4700000D03*
X+1134000Y+4700000D03*
X+2200000Y+5450000D03*
X+1184000Y+5450000D03*
X+2200000Y+6200000D03*
X+1184000Y+6200000D03*
X+2150000Y+7000000D03*
X+1134000Y+7000000D03*
X+2150000Y+7750000D03*
X+1134000Y+7750000D03*
X+2100000Y+8500000D03*
X+1084000Y+8500000D03*
X+2150000Y+9200000D03*
X+1134000Y+9200000D03*
X+7192000Y+2400000D03*
X+7192000Y+1384000D03*
X+6392000Y+2450000D03*
X+6392000Y+1434000D03*
X+5892000Y+2450000D03*
X+5892000Y+1434000D03*
X+5042000Y+2450000D03*
X+5042000Y+1434000D03*
X+4242000Y+2450000D03*
X+4242000Y+1434000D03*
X+3342000Y+2450000D03*
X+3342000Y+1434000D03*
X+2542000Y+2450000D03*
X+2542000Y+1434000D03*
X+1342000Y+2450000D03*
X+1342000Y+1434000D03*
X+1742000Y+2450000D03*
X+1742000Y+1434000D03*
X+2192000Y+2450000D03*
X+2192000Y+1434000D03*
X+2992000Y+2450000D03*
X+2992000Y+1434000D03*
X+3892000Y+2450000D03*
X+3892000Y+1434000D03*
X+4692000Y+2450000D03*
X+4692000Y+1434000D03*
X+5442000Y+2450000D03*
X+5442000Y+1434000D03*
X+6742000Y+2450000D03*
X+6742000Y+1434000D03*
X+7592000Y+2450000D03*
X+7592000Y+1434000D03*
X+8484000Y+3550000D03*
X+8992000Y+3550000D03*
X+9500000Y+3550000D03*
X+13492000Y+3500000D03*
X+14000000Y+3500000D03*
X+14508000Y+3500000D03*
D13*
X+7350000Y+5454000D03*
X+7350000Y+5200000D03*
X+7350000Y+4946000D03*
M02*
