G04 PROTEUS RS274X GERBER FILE*
%FSLAX45Y45*%
%MOMM*%
G01*
%AMPPAD009*
4,1,36,
-1.016000,1.143000,
1.016000,1.143000,
1.041970,1.140470,
1.065980,1.133200,
1.087580,1.121650,
1.106290,1.106290,
1.121650,1.087570,
1.133200,1.065980,
1.140470,1.041970,
1.143000,1.016000,
1.143000,-1.016000,
1.140470,-1.041970,
1.133200,-1.065980,
1.121650,-1.087570,
1.106290,-1.106290,
1.087580,-1.121650,
1.065980,-1.133200,
1.041970,-1.140470,
1.016000,-1.143000,
-1.016000,-1.143000,
-1.041970,-1.140470,
-1.065980,-1.133200,
-1.087580,-1.121650,
-1.106290,-1.106290,
-1.121650,-1.087570,
-1.133200,-1.065980,
-1.140470,-1.041970,
-1.143000,-1.016000,
-1.143000,1.016000,
-1.140470,1.041970,
-1.133200,1.065980,
-1.121650,1.087570,
-1.106290,1.106290,
-1.087580,1.121650,
-1.065980,1.133200,
-1.041970,1.140470,
-1.016000,1.143000,
0*%
%ADD19PPAD009*%
%ADD13C,2.032000*%
%ADD70C,2.286000*%
%ADD12C,1.778000*%
D19*
X+550000Y+9250000D03*
X+804000Y+9250000D03*
X+550000Y+8500000D03*
X+804000Y+8500000D03*
X+550000Y+7750000D03*
X+804000Y+7750000D03*
X+550000Y+7000000D03*
X+804000Y+7000000D03*
X+554000Y+6200000D03*
X+808000Y+6200000D03*
X+550000Y+5450000D03*
X+804000Y+5450000D03*
X+550000Y+4700000D03*
X+804000Y+4700000D03*
X+550000Y+3950000D03*
X+804000Y+3950000D03*
D13*
X+10021300Y+6651400D03*
X+10275300Y+6651400D03*
X+10529300Y+6651400D03*
X+10783300Y+6651400D03*
X+11037300Y+6651400D03*
X+11291300Y+6651400D03*
X+10034000Y+8150000D03*
X+10288000Y+8150000D03*
X+10542000Y+8150000D03*
X+10796000Y+8150000D03*
X+11050000Y+8150000D03*
X+11304000Y+8150000D03*
D70*
X+7150000Y+8500000D03*
X+7150000Y+8246000D03*
X+7150000Y+7992000D03*
X+7150000Y+7738000D03*
X+7150000Y+7484000D03*
X+7150000Y+7230000D03*
X+7150000Y+6976000D03*
X+7150000Y+6722000D03*
X+11600000Y+9050000D03*
X+11854000Y+9050000D03*
X+12108000Y+9050000D03*
X+12362000Y+9050000D03*
X+6058000Y+7800000D03*
X+5804000Y+7800000D03*
X+5550000Y+7800000D03*
X+5296000Y+7800000D03*
X+5042000Y+7800000D03*
X+4788000Y+7800000D03*
X+4534000Y+7800000D03*
X+4280000Y+7800000D03*
X+4296000Y+8700000D03*
X+4550000Y+8700000D03*
X+4804000Y+8700000D03*
X+5058000Y+8700000D03*
X+5312000Y+8700000D03*
X+5566000Y+8700000D03*
X+5820000Y+8700000D03*
X+6074000Y+8700000D03*
D12*
X+9896000Y+2150000D03*
X+10150000Y+2150000D03*
X+10404000Y+2150000D03*
X+10658000Y+2150000D03*
X+10912000Y+2150000D03*
X+11166000Y+2150000D03*
X+11420000Y+2150000D03*
X+11674000Y+2150000D03*
X+11928000Y+2150000D03*
X+12182000Y+2150000D03*
X+12436000Y+2150000D03*
X+12690000Y+2150000D03*
X+12944000Y+2150000D03*
X+13198000Y+2150000D03*
X+13452000Y+2150000D03*
X+13706000Y+2150000D03*
X+12658000Y+3600000D03*
X+12404000Y+3600000D03*
X+12150000Y+3600000D03*
X+11896000Y+3600000D03*
X+11642000Y+3600000D03*
X+11388000Y+3600000D03*
X+11134000Y+3600000D03*
X+10880000Y+3600000D03*
X+10626000Y+3600000D03*
X+10372000Y+3600000D03*
D70*
X+14000000Y+6800000D03*
X+14000000Y+6546000D03*
X+6350000Y+4946000D03*
X+6350000Y+5200000D03*
X+6350000Y+5454000D03*
X+3350000Y+7762000D03*
X+3350000Y+7508000D03*
X+3350000Y+7254000D03*
X+3350000Y+7000000D03*
X+3350000Y+6746000D03*
X+3350000Y+6492000D03*
X+3350000Y+6238000D03*
X+3350000Y+5984000D03*
X+5266000Y+700000D03*
X+5012000Y+700000D03*
X+4758000Y+700000D03*
X+4504000Y+700000D03*
X+4250000Y+700000D03*
X+3996000Y+700000D03*
X+3742000Y+700000D03*
X+3488000Y+700000D03*
D13*
X+1242000Y+3500000D03*
X+1750000Y+3500000D03*
X+1242000Y+2738000D03*
X+1750000Y+2738000D03*
X+2034000Y+3512000D03*
X+2542000Y+3512000D03*
X+2034000Y+2750000D03*
X+2542000Y+2750000D03*
X+2842000Y+3500000D03*
X+3350000Y+3500000D03*
X+2842000Y+2738000D03*
X+3350000Y+2738000D03*
X+3742000Y+3500000D03*
X+4250000Y+3500000D03*
X+3742000Y+2738000D03*
X+4250000Y+2738000D03*
X+4542000Y+3500000D03*
X+5050000Y+3500000D03*
X+4542000Y+2738000D03*
X+5050000Y+2738000D03*
X+5392000Y+3500000D03*
X+5900000Y+3500000D03*
X+5392000Y+2738000D03*
X+5900000Y+2738000D03*
X+6242000Y+3500000D03*
X+6750000Y+3500000D03*
X+6242000Y+2738000D03*
X+6750000Y+2738000D03*
X+7042000Y+3500000D03*
X+7550000Y+3500000D03*
X+7042000Y+2738000D03*
X+7550000Y+2738000D03*
X+2150000Y+3950000D03*
X+1134000Y+3950000D03*
X+2150000Y+4700000D03*
X+1134000Y+4700000D03*
X+2200000Y+5450000D03*
X+1184000Y+5450000D03*
X+2200000Y+6200000D03*
X+1184000Y+6200000D03*
X+2150000Y+7000000D03*
X+1134000Y+7000000D03*
X+2150000Y+7750000D03*
X+1134000Y+7750000D03*
X+2100000Y+8500000D03*
X+1084000Y+8500000D03*
X+2150000Y+9200000D03*
X+1134000Y+9200000D03*
X+7192000Y+2400000D03*
X+7192000Y+1384000D03*
X+6392000Y+2450000D03*
X+6392000Y+1434000D03*
X+5892000Y+2450000D03*
X+5892000Y+1434000D03*
X+5042000Y+2450000D03*
X+5042000Y+1434000D03*
X+4242000Y+2450000D03*
X+4242000Y+1434000D03*
X+3342000Y+2450000D03*
X+3342000Y+1434000D03*
X+2542000Y+2450000D03*
X+2542000Y+1434000D03*
X+1342000Y+2450000D03*
X+1342000Y+1434000D03*
X+1742000Y+2450000D03*
X+1742000Y+1434000D03*
X+2192000Y+2450000D03*
X+2192000Y+1434000D03*
X+2992000Y+2450000D03*
X+2992000Y+1434000D03*
X+3892000Y+2450000D03*
X+3892000Y+1434000D03*
X+4692000Y+2450000D03*
X+4692000Y+1434000D03*
X+5442000Y+2450000D03*
X+5442000Y+1434000D03*
X+6742000Y+2450000D03*
X+6742000Y+1434000D03*
X+7592000Y+2450000D03*
X+7592000Y+1434000D03*
X+8484000Y+3550000D03*
X+8992000Y+3550000D03*
X+9500000Y+3550000D03*
X+13492000Y+3500000D03*
X+14000000Y+3500000D03*
X+14508000Y+3500000D03*
D70*
X+7350000Y+5454000D03*
X+7350000Y+5200000D03*
X+7350000Y+4946000D03*
M02*
